G04 #@! TF.GenerationSoftware,KiCad,Pcbnew,(7.99.0-174-g31be74b8b3)*
G04 #@! TF.CreationDate,2023-07-10T17:09:23+02:00*
G04 #@! TF.ProjectId,HydraBus,48796472-6142-4757-932e-6b696361645f,1.0 Rev1.4*
G04 #@! TF.SameCoordinates,Original*
G04 #@! TF.FileFunction,Paste,Top*
G04 #@! TF.FilePolarity,Positive*
%FSLAX46Y46*%
G04 Gerber Fmt 4.6, Leading zero omitted, Abs format (unit mm)*
G04 Created by KiCad (PCBNEW (7.99.0-174-g31be74b8b3)) date 2023-07-10 17:09:23*
%MOMM*%
%LPD*%
G01*
G04 APERTURE LIST*
G04 Aperture macros list*
%AMRoundRect*
0 Rectangle with rounded corners*
0 $1 Rounding radius*
0 $2 $3 $4 $5 $6 $7 $8 $9 X,Y pos of 4 corners*
0 Add a 4 corners polygon primitive as box body*
4,1,4,$2,$3,$4,$5,$6,$7,$8,$9,$2,$3,0*
0 Add four circle primitives for the rounded corners*
1,1,$1+$1,$2,$3*
1,1,$1+$1,$4,$5*
1,1,$1+$1,$6,$7*
1,1,$1+$1,$8,$9*
0 Add four rect primitives between the rounded corners*
20,1,$1+$1,$2,$3,$4,$5,0*
20,1,$1+$1,$4,$5,$6,$7,0*
20,1,$1+$1,$6,$7,$8,$9,0*
20,1,$1+$1,$8,$9,$2,$3,0*%
G04 Aperture macros list end*
%ADD10RoundRect,0.200000X-0.200000X-0.275000X0.200000X-0.275000X0.200000X0.275000X-0.200000X0.275000X0*%
%ADD11RoundRect,0.200000X0.200000X0.275000X-0.200000X0.275000X-0.200000X-0.275000X0.200000X-0.275000X0*%
%ADD12RoundRect,0.200000X-0.275000X0.200000X-0.275000X-0.200000X0.275000X-0.200000X0.275000X0.200000X0*%
%ADD13R,1.450000X0.600000*%
%ADD14R,1.450000X0.300000*%
%ADD15R,2.400000X1.900000*%
%ADD16R,0.240000X1.200000*%
%ADD17R,1.200000X0.240000*%
%ADD18R,1.778000X1.016000*%
%ADD19R,1.397000X1.778000*%
%ADD20RoundRect,0.111125X0.333375X-0.333375X0.333375X0.333375X-0.333375X0.333375X-0.333375X-0.333375X0*%
%ADD21RoundRect,0.111125X0.333375X0.333375X-0.333375X0.333375X-0.333375X-0.333375X0.333375X-0.333375X0*%
%ADD22RoundRect,0.111125X-0.333375X-0.333375X0.333375X-0.333375X0.333375X0.333375X-0.333375X0.333375X0*%
%ADD23R,2.000000X3.800000*%
%ADD24R,2.000000X1.500000*%
%ADD25RoundRect,0.127000X-0.571500X0.381000X-0.571500X-0.381000X0.571500X-0.381000X0.571500X0.381000X0*%
%ADD26RoundRect,0.111125X-0.333375X0.333375X-0.333375X-0.333375X0.333375X-0.333375X0.333375X0.333375X0*%
%ADD27R,1.320800X0.558800*%
%ADD28RoundRect,0.095250X-0.285750X-0.349250X0.285750X-0.349250X0.285750X0.349250X-0.285750X0.349250X0*%
%ADD29RoundRect,0.095250X0.285750X0.349250X-0.285750X0.349250X-0.285750X-0.349250X0.285750X-0.349250X0*%
%ADD30R,0.508000X0.762000*%
G04 APERTURE END LIST*
D10*
X165545000Y-83820000D03*
X167195000Y-83820000D03*
X167140000Y-85725000D03*
X165490000Y-85725000D03*
D11*
X164020000Y-85695000D03*
X162370000Y-85695000D03*
X164020000Y-83820000D03*
X162370000Y-83820000D03*
D12*
X157480000Y-96935000D03*
X157480000Y-98585000D03*
X157480000Y-93790000D03*
X157480000Y-95440000D03*
D13*
X154954587Y-76409999D03*
X154954587Y-77209999D03*
D14*
X154954587Y-78409999D03*
X154954587Y-79409999D03*
X154954587Y-79909999D03*
X154954587Y-80909999D03*
D13*
X154954587Y-82109999D03*
X154954587Y-82909999D03*
X154954587Y-82909999D03*
X154954587Y-82109999D03*
D14*
X154954587Y-81409999D03*
X154954587Y-80409999D03*
X154954587Y-78909999D03*
X154954587Y-77909999D03*
D13*
X154954587Y-77209999D03*
X154954587Y-76409999D03*
X154954587Y-90094999D03*
X154954587Y-90894999D03*
D14*
X154954587Y-91594999D03*
X154954587Y-92594999D03*
X154954587Y-94094999D03*
X154954587Y-95094999D03*
D13*
X154954587Y-95794999D03*
X154954587Y-96594999D03*
X154954587Y-96594999D03*
X154954587Y-95794999D03*
D14*
X154954587Y-94594999D03*
X154954587Y-93594999D03*
X154954587Y-93094999D03*
X154954587Y-92094999D03*
D13*
X154954587Y-90894999D03*
X154954587Y-90094999D03*
D15*
X171449999Y-87774999D03*
X171449999Y-83674999D03*
D16*
X182615899Y-80969599D03*
X183115899Y-80969599D03*
X183615899Y-80969599D03*
X184115899Y-80969599D03*
X184615899Y-80969599D03*
X185115899Y-80969599D03*
X185615899Y-80969599D03*
X186115899Y-80969599D03*
X186615899Y-80969599D03*
X187115899Y-80969599D03*
X187615899Y-80969599D03*
X188115899Y-80969599D03*
X188615899Y-80969599D03*
X189115899Y-80969599D03*
X189615899Y-80969599D03*
X190115899Y-80969599D03*
D17*
X192365899Y-83219599D03*
X192365899Y-83719599D03*
X192365899Y-84219599D03*
X192365899Y-84719599D03*
X192365899Y-85219599D03*
X192365899Y-85719599D03*
X192365899Y-86219599D03*
X192365899Y-86719599D03*
X192365899Y-87219599D03*
X192365899Y-87719599D03*
X192365899Y-88219599D03*
X192365899Y-88719599D03*
X192365899Y-89219599D03*
X192365899Y-89719599D03*
X192365899Y-90219599D03*
X192365899Y-90719599D03*
D16*
X190115899Y-92969599D03*
X189615899Y-92969599D03*
X189115899Y-92969599D03*
X188615899Y-92969599D03*
X188115899Y-92969599D03*
X187615899Y-92969599D03*
X187115899Y-92969599D03*
X186615899Y-92969599D03*
X186115899Y-92969599D03*
X185615899Y-92969599D03*
X185115899Y-92969599D03*
X184615899Y-92969599D03*
X184115899Y-92969599D03*
X183615899Y-92969599D03*
X183115899Y-92969599D03*
X182615899Y-92969599D03*
D17*
X180365899Y-90719599D03*
X180365899Y-90219599D03*
X180365899Y-89719599D03*
X180365899Y-89219599D03*
X180365899Y-88719599D03*
X180365899Y-88219599D03*
X180365899Y-87719599D03*
X180365899Y-87219599D03*
X180365899Y-86719599D03*
X180365899Y-86219599D03*
X180365899Y-85719599D03*
X180365899Y-85219599D03*
X180365899Y-84719599D03*
X180365899Y-84219599D03*
X180365899Y-83719599D03*
X180365899Y-83219599D03*
D18*
X173139099Y-104241599D03*
X166027099Y-104241599D03*
D19*
X171742099Y-102082599D03*
X167424099Y-102082599D03*
D20*
X175260000Y-76174600D03*
X175260000Y-77698600D03*
D21*
X170561000Y-90735000D03*
X172085000Y-90735000D03*
X170803000Y-80575000D03*
X172327000Y-80575000D03*
D22*
X176657000Y-95885000D03*
X175133000Y-95885000D03*
D20*
X182029100Y-76555600D03*
X182029100Y-78079600D03*
D23*
X163843099Y-75793599D03*
D24*
X157543099Y-78093599D03*
X157543099Y-75793599D03*
X157543099Y-73493599D03*
D22*
X159258000Y-84074000D03*
X157734000Y-84074000D03*
X173482000Y-92710000D03*
X171958000Y-92710000D03*
D25*
X166408100Y-75539600D03*
X166408100Y-73761600D03*
D22*
X160439100Y-80619600D03*
X158915100Y-80619600D03*
X159169100Y-70713600D03*
X157645100Y-70713600D03*
X170980100Y-70713600D03*
X169456100Y-70713600D03*
X196507100Y-81889600D03*
X194983100Y-81889600D03*
D26*
X183527700Y-96469200D03*
X183527700Y-94945200D03*
D21*
X192443100Y-93319600D03*
X193967100Y-93319600D03*
X176364900Y-89738200D03*
X177888900Y-89738200D03*
X178308000Y-80010000D03*
X179832000Y-80010000D03*
X192443100Y-95351600D03*
X193967100Y-95351600D03*
X176403000Y-91440000D03*
X177927000Y-91440000D03*
D20*
X174625000Y-87503000D03*
X174625000Y-89027000D03*
D27*
X157479999Y-88036399D03*
X157479999Y-87096599D03*
X157479999Y-86156799D03*
X160019999Y-86156799D03*
X160019999Y-87096599D03*
X160019999Y-88036399D03*
D26*
X174625000Y-85852000D03*
X174625000Y-84328000D03*
D22*
X158877000Y-90398600D03*
X157353000Y-90398600D03*
X158877000Y-92075000D03*
X157353000Y-92075000D03*
D20*
X160020000Y-95758000D03*
X160020000Y-97282000D03*
X170180000Y-94208600D03*
X170180000Y-95732600D03*
D28*
X162979100Y-70713600D03*
X161455100Y-70713600D03*
X166789100Y-70713600D03*
X165265100Y-70713600D03*
D29*
X159423100Y-99415600D03*
X160947100Y-99415600D03*
D18*
X163741099Y-104241599D03*
X156629099Y-104241599D03*
D19*
X162344099Y-102082599D03*
X158026099Y-102082599D03*
D20*
X168275000Y-94208600D03*
X168275000Y-95732600D03*
D30*
X166179499Y-79374999D03*
X167004999Y-79374999D03*
X167766999Y-79374999D03*
X168592499Y-79374999D03*
X168592499Y-80898999D03*
X167766999Y-80898999D03*
X167004999Y-80898999D03*
X166179499Y-80898999D03*
D22*
X196507100Y-83667600D03*
X194983100Y-83667600D03*
D21*
X178308000Y-78740000D03*
X179832000Y-78740000D03*
D20*
X196253100Y-89255600D03*
X196253100Y-90779600D03*
D26*
X169185000Y-76972000D03*
X169185000Y-75448000D03*
D20*
X170815000Y-75438000D03*
X170815000Y-76962000D03*
M02*
