M48
; DRILL file {KiCad (7.99.0-174-g31be74b8b3)} date Mon 10 Jul 2023 05:10:41 PM CEST
; FORMAT={-:-/ absolute / metric / decimal}
; #@! TF.CreationDate,2023-07-10T17:10:41+02:00
; #@! TF.GenerationSoftware,Kicad,Pcbnew,(7.99.0-174-g31be74b8b3)
; #@! TF.FileFunction,Plated,1,2,PTH
FMAT,2
METRIC
; #@! TA.AperFunction,Plated,PTH,ViaDrill
T1C0.330
; #@! TA.AperFunction,Plated,PTH,ViaDrill
T2C0.330
; #@! TA.AperFunction,Plated,PTH,ViaDrill
T3C0.356
; #@! TA.AperFunction,Plated,PTH,ViaDrill
T4C0.400
; #@! TA.AperFunction,Plated,PTH,ViaDrill
T5C0.406
; #@! TA.AperFunction,Plated,PTH,ViaDrill
T6C0.500
; #@! TA.AperFunction,Plated,PTH,ViaDrill
T7C0.600
; #@! TA.AperFunction,Plated,PTH,ComponentDrill
T8C0.600
; #@! TA.AperFunction,Plated,PTH,ComponentDrill
T9C0.813
; #@! TA.AperFunction,Plated,PTH,ComponentDrill
T10C0.914
; #@! TA.AperFunction,Plated,PTH,ComponentDrill
T11C1.000
; #@! TA.AperFunction,Plated,PTH,ComponentDrill
T12C1.016
%
G90
G05
T1
X152.781Y-81.28
X153.162Y-92.075
X159.552Y-79.375
X160.147Y-102.87
X160.147Y-104.394
X160.655Y-78.105
X169.545Y-89.535
X169.545Y-102.997
X169.545Y-104.394
T2
X149.225Y-74.041
X149.352Y-99.187
X149.86Y-78.105
X149.86Y-80.01
X149.86Y-81.915
X149.86Y-91.694
X149.86Y-93.472
X149.86Y-95.25
X150.622Y-74.041
X151.13Y-98.933
X151.892Y-74.422
X152.908Y-94.107
X153.035Y-79.375
X153.416Y-85.725
X154.305Y-74.041
X155.702Y-72.136
X155.702Y-74.041
X155.702Y-99.187
X155.829Y-85.725
X155.829Y-88.011
X156.083Y-68.834
X156.083Y-70.485
X156.248Y-101.575
X156.266Y-102.802
X157.734Y-79.629
X158.75Y-87.097
X158.75Y-93.98
X158.75Y-95.377
X158.877Y-98.171
X160.02Y-92.075
X160.02Y-93.345
X160.655Y-94.615
X161.925Y-80.645
X162.56Y-86.995
X163.741Y-72.873
X163.83Y-86.995
X163.83Y-88.265
X163.83Y-90.805
X163.835Y-99.695
X163.995Y-101.702
X167.259Y-90.551
X167.264Y-98.687
X167.64Y-87.63
X167.64Y-92.583
X168.275Y-81.915
X170.18Y-78.613
X170.18Y-92.71
X170.815Y-73.66
X170.815Y-85.725
X170.815Y-89.535
X171.582Y-99.703
X172.085Y-76.2
X172.085Y-94.5
X173.355Y-76.2
X173.482Y-90.17
X173.609Y-78.613
X173.736Y-96.012
X173.824Y-94.615
X173.863Y-83.185
X174.79Y-100.432
X174.841Y-104.191
X175.895Y-84.455
X176.311Y-88.113
X176.314Y-94.082
X177.152Y-87.086
X177.165Y-83.82
X177.976Y-87.372
X178.435Y-81.28
X179.093Y-90.955
X179.161Y-87.983
X179.743Y-100.686
X179.997Y-93.447
X180.34Y-77.47
X180.34Y-81.28
X180.853Y-95.131
X180.98Y-93.353
X181.7Y-83.867
X182.61Y-89.622
X183.485Y-89.898
X183.635Y-87.671
X183.639Y-85.663
X184.268Y-79.743
X184.569Y-98.4
X184.569Y-101.702
X185.446Y-79.222
X186.27Y-91.364
X186.474Y-78.461
X186.728Y-75.794
X187.069Y-79.856
X187.297Y-91.364
X188.379Y-104.292
X188.773Y-78.459
X189.004Y-83.222
X189.13Y-84.672
X189.13Y-85.804
X189.141Y-94.209
X189.801Y-82.553
X189.801Y-83.721
X190.077Y-87.732
X190.862Y-81.329
X191.046Y-92.939
X194.073Y-86.869
X194.297Y-85.369
X194.297Y-89.56
X194.74Y-87.744
X195.094Y-86.859
X195.162Y-85.04
X196.749Y-78.968
X197.004Y-86.834
X197.511Y-81.635
X197.65Y-88.367
X198.031Y-85.065
X198.031Y-92.939
X198.079Y-82.676
X198.971Y-95.504
X199.047Y-90.272
X200.571Y-103.988
X200.825Y-68.936
X200.825Y-76.429
X200.825Y-97.638
X204.381Y-75.794
X204.381Y-90.272
X204.635Y-97.384
X206.413Y-87.732
X207.429Y-76.048
X207.429Y-97.384
X207.683Y-87.732
T3
X171.45Y-96.495
T4
X177.965Y-100.432
T5
X175.2Y-94.615
X175.26Y-90.424
X197.942Y-94.569
T6
X159.423Y-101.702
X160.693Y-101.702
T7
X149.86Y-86.487
X161.201Y-73.381
X161.709Y-76.835
X162.09Y-99.416
X165.1Y-79.375
X165.9Y-101.702
X166.281Y-99.543
X168.567Y-98.781
X173.774Y-98.654
X180.251Y-96.622
X186.047Y-86.075
X186.047Y-87.98
T9
X175.26Y-79.604
X175.26Y-82.144
T10
X162.56Y-89.535
X162.56Y-92.075
X162.56Y-94.717
X162.56Y-97.257
X165.1Y-89.535
X165.1Y-92.075
X165.1Y-94.717
X165.1Y-97.257
T11
X178.219Y-71.222
X178.219Y-73.762
X178.219Y-99.162
X178.219Y-101.702
X180.759Y-71.222
X180.759Y-73.762
X180.759Y-99.162
X180.759Y-101.702
X183.299Y-71.222
X183.299Y-73.762
X183.299Y-99.162
X183.299Y-101.702
X185.839Y-71.222
X185.839Y-73.762
X185.839Y-77.064
X185.839Y-99.162
X185.839Y-101.702
X188.379Y-71.222
X188.379Y-73.762
X188.379Y-77.064
X188.379Y-99.162
X188.379Y-101.702
X190.919Y-71.222
X190.919Y-73.762
X190.919Y-77.064
X190.919Y-99.162
X190.919Y-101.702
X193.459Y-71.222
X193.459Y-73.762
X193.459Y-77.064
X193.459Y-99.162
X193.459Y-101.702
X195.999Y-71.222
X195.999Y-73.762
X195.999Y-77.064
X195.999Y-99.162
X195.999Y-101.702
X198.539Y-77.064
X201.587Y-81.382
X201.587Y-83.922
X201.587Y-86.462
X201.587Y-89.002
X201.587Y-91.542
X201.587Y-94.082
X204.127Y-81.382
X204.127Y-83.922
X204.127Y-86.462
X204.127Y-89.002
X204.127Y-91.542
X204.127Y-94.082
T12
X175.679Y-71.222
X175.679Y-73.762
X175.679Y-99.162
X175.679Y-101.702
X198.539Y-71.222
X198.539Y-73.762
X198.539Y-99.162
X198.542Y-101.696
X201.587Y-78.842
X204.127Y-78.842
T8
X150.16Y-75.34G85X149.56Y-75.34
G05
X150.16Y-83.98G85X149.56Y-83.98
G05
X150.16Y-89.025G85X149.56Y-89.025
G05
X150.16Y-97.665G85X149.56Y-97.665
G05
X154.59Y-75.34G85X153.49Y-75.34
G05
X154.59Y-83.98G85X153.49Y-83.98
G05
X154.59Y-89.025G85X153.49Y-89.025
G05
X154.59Y-97.665G85X153.49Y-97.665
G05
T0
M30
