G04 #@! TF.GenerationSoftware,KiCad,Pcbnew,(7.99.0-174-g31be74b8b3)*
G04 #@! TF.CreationDate,2023-07-10T17:09:23+02:00*
G04 #@! TF.ProjectId,HydraBus,48796472-6142-4757-932e-6b696361645f,1.0 Rev1.4*
G04 #@! TF.SameCoordinates,Original*
G04 #@! TF.FileFunction,Soldermask,Top*
G04 #@! TF.FilePolarity,Negative*
%FSLAX46Y46*%
G04 Gerber Fmt 4.6, Leading zero omitted, Abs format (unit mm)*
G04 Created by KiCad (PCBNEW (7.99.0-174-g31be74b8b3)) date 2023-07-10 17:09:23*
%MOMM*%
%LPD*%
G01*
G04 APERTURE LIST*
G04 Aperture macros list*
%AMRoundRect*
0 Rectangle with rounded corners*
0 $1 Rounding radius*
0 $2 $3 $4 $5 $6 $7 $8 $9 X,Y pos of 4 corners*
0 Add a 4 corners polygon primitive as box body*
4,1,4,$2,$3,$4,$5,$6,$7,$8,$9,$2,$3,0*
0 Add four circle primitives for the rounded corners*
1,1,$1+$1,$2,$3*
1,1,$1+$1,$4,$5*
1,1,$1+$1,$6,$7*
1,1,$1+$1,$8,$9*
0 Add four rect primitives between the rounded corners*
20,1,$1+$1,$2,$3,$4,$5,0*
20,1,$1+$1,$4,$5,$6,$7,0*
20,1,$1+$1,$6,$7,$8,$9,0*
20,1,$1+$1,$8,$9,$2,$3,0*%
G04 Aperture macros list end*
G04 #@! TA.AperFunction,Profile*
%ADD10C,0.100000*%
G04 #@! TD*
%ADD11RoundRect,0.250000X-0.200000X-0.275000X0.200000X-0.275000X0.200000X0.275000X-0.200000X0.275000X0*%
%ADD12RoundRect,0.250000X0.200000X0.275000X-0.200000X0.275000X-0.200000X-0.275000X0.200000X-0.275000X0*%
%ADD13RoundRect,0.250000X-0.275000X0.200000X-0.275000X-0.200000X0.275000X-0.200000X0.275000X0.200000X0*%
%ADD14C,1.498600*%
%ADD15C,0.750000*%
%ADD16RoundRect,0.050000X-0.725000X0.300000X-0.725000X-0.300000X0.725000X-0.300000X0.725000X0.300000X0*%
%ADD17RoundRect,0.050000X-0.725000X0.150000X-0.725000X-0.150000X0.725000X-0.150000X0.725000X0.150000X0*%
%ADD18O,1.700000X1.100000*%
%ADD19O,2.200000X1.100000*%
%ADD20RoundRect,0.050000X-1.200000X-0.950000X1.200000X-0.950000X1.200000X0.950000X-1.200000X0.950000X0*%
%ADD21RoundRect,0.063500X-0.120000X0.600000X-0.120000X-0.600000X0.120000X-0.600000X0.120000X0.600000X0*%
%ADD22RoundRect,0.063500X0.600000X0.120000X-0.600000X0.120000X-0.600000X-0.120000X0.600000X-0.120000X0*%
%ADD23RoundRect,0.063500X0.120000X-0.600000X0.120000X0.600000X-0.120000X0.600000X-0.120000X-0.600000X0*%
%ADD24RoundRect,0.063500X-0.600000X-0.120000X0.600000X-0.120000X0.600000X0.120000X-0.600000X0.120000X0*%
%ADD25C,3.300000*%
%ADD26C,1.050000*%
%ADD27RoundRect,0.063500X-0.889000X-0.508000X0.889000X-0.508000X0.889000X0.508000X-0.889000X0.508000X0*%
%ADD28RoundRect,0.063500X0.698500X-0.889000X0.698500X0.889000X-0.698500X0.889000X-0.698500X-0.889000X0*%
%ADD29RoundRect,0.174625X0.333375X-0.333375X0.333375X0.333375X-0.333375X0.333375X-0.333375X-0.333375X0*%
%ADD30RoundRect,0.174625X0.333375X0.333375X-0.333375X0.333375X-0.333375X-0.333375X0.333375X-0.333375X0*%
%ADD31RoundRect,0.174625X-0.333375X-0.333375X0.333375X-0.333375X0.333375X0.333375X-0.333375X0.333375X0*%
%ADD32RoundRect,0.063500X-1.000000X1.900000X-1.000000X-1.900000X1.000000X-1.900000X1.000000X1.900000X0*%
%ADD33RoundRect,0.063500X-1.000000X0.750000X-1.000000X-0.750000X1.000000X-0.750000X1.000000X0.750000X0*%
%ADD34RoundRect,0.190500X-0.571500X0.381000X-0.571500X-0.381000X0.571500X-0.381000X0.571500X0.381000X0*%
%ADD35C,1.651000*%
%ADD36RoundRect,0.174625X-0.333375X0.333375X-0.333375X-0.333375X0.333375X-0.333375X0.333375X0.333375X0*%
%ADD37C,1.627000*%
%ADD38RoundRect,0.063500X0.750000X-0.750000X0.750000X0.750000X-0.750000X0.750000X-0.750000X-0.750000X0*%
%ADD39RoundRect,0.063500X-0.750000X-0.750000X0.750000X-0.750000X0.750000X0.750000X-0.750000X0.750000X0*%
%ADD40RoundRect,0.063500X0.660400X0.279400X-0.660400X0.279400X-0.660400X-0.279400X0.660400X-0.279400X0*%
%ADD41C,1.803400*%
%ADD42RoundRect,0.158750X-0.285750X-0.349250X0.285750X-0.349250X0.285750X0.349250X-0.285750X0.349250X0*%
%ADD43RoundRect,0.158750X0.285750X0.349250X-0.285750X0.349250X-0.285750X-0.349250X0.285750X-0.349250X0*%
%ADD44C,0.989000*%
%ADD45RoundRect,0.063500X-0.254000X-0.381000X0.254000X-0.381000X0.254000X0.381000X-0.254000X0.381000X0*%
G04 APERTURE END LIST*
D10*
X148501100Y-72003600D02*
X148501100Y-101003600D01*
X204501100Y-68003600D02*
X152501100Y-68003600D01*
X208501100Y-101003600D02*
X208501100Y-72003600D01*
X152501100Y-105003600D02*
X204501100Y-105003600D01*
X208501100Y-72003600D02*
G75*
G03*
X204501100Y-68003600I-4000000J0D01*
G01*
X152501100Y-68003600D02*
G75*
G03*
X148501100Y-72003600I0J-4000000D01*
G01*
X204501100Y-105003600D02*
G75*
G03*
X208501100Y-101003600I0J4000000D01*
G01*
X148501100Y-101003600D02*
G75*
G03*
X152501100Y-105003600I4000000J0D01*
G01*
D11*
X165545000Y-83820000D03*
X167195000Y-83820000D03*
X167140000Y-85725000D03*
X165490000Y-85725000D03*
D12*
X164020000Y-85695000D03*
X162370000Y-85695000D03*
X164020000Y-83820000D03*
X162370000Y-83820000D03*
D13*
X157480000Y-96935000D03*
X157480000Y-98585000D03*
X157480000Y-93790000D03*
X157480000Y-95440000D03*
D14*
X162560000Y-92075000D03*
X165100000Y-92075000D03*
X162560000Y-89535000D03*
X165100000Y-89535000D03*
D15*
X153509588Y-82550000D03*
X153509588Y-76770000D03*
D16*
X154954588Y-76410000D03*
X154954588Y-77210000D03*
D17*
X154954588Y-78410000D03*
X154954588Y-79410000D03*
X154954588Y-79910000D03*
X154954588Y-80910000D03*
D16*
X154954588Y-82110000D03*
X154954588Y-82910000D03*
X154954588Y-82910000D03*
X154954588Y-82110000D03*
D17*
X154954588Y-81410000D03*
X154954588Y-80410000D03*
X154954588Y-78910000D03*
X154954588Y-77910000D03*
D16*
X154954588Y-77210000D03*
X154954588Y-76410000D03*
D18*
X149859587Y-75339999D03*
D19*
X154039587Y-75339999D03*
X154039587Y-83979999D03*
D18*
X149859587Y-83979999D03*
X149859587Y-97664999D03*
D19*
X154039587Y-97664999D03*
X154039587Y-89024999D03*
D18*
X149859587Y-89024999D03*
D16*
X154954588Y-90095000D03*
X154954588Y-90895000D03*
D17*
X154954588Y-91595000D03*
X154954588Y-92595000D03*
X154954588Y-94095000D03*
X154954588Y-95095000D03*
D16*
X154954588Y-95795000D03*
X154954588Y-96595000D03*
X154954588Y-96595000D03*
X154954588Y-95795000D03*
D17*
X154954588Y-94595000D03*
X154954588Y-93595000D03*
X154954588Y-93095000D03*
X154954588Y-92095000D03*
D16*
X154954588Y-90895000D03*
X154954588Y-90095000D03*
D15*
X153509588Y-90455000D03*
X153509588Y-96235000D03*
D20*
X171450000Y-87775000D03*
X171450000Y-83675000D03*
D21*
X182615900Y-80969600D03*
X183115900Y-80969600D03*
X183615900Y-80969600D03*
X184115900Y-80969600D03*
X184615900Y-80969600D03*
X185115900Y-80969600D03*
X185615900Y-80969600D03*
X186115900Y-80969600D03*
X186615900Y-80969600D03*
X187115900Y-80969600D03*
X187615900Y-80969600D03*
X188115900Y-80969600D03*
X188615900Y-80969600D03*
X189115900Y-80969600D03*
X189615900Y-80969600D03*
X190115900Y-80969600D03*
D22*
X192365900Y-83219600D03*
X192365900Y-83719600D03*
X192365900Y-84219600D03*
X192365900Y-84719600D03*
X192365900Y-85219600D03*
X192365900Y-85719600D03*
X192365900Y-86219600D03*
X192365900Y-86719600D03*
X192365900Y-87219600D03*
X192365900Y-87719600D03*
X192365900Y-88219600D03*
X192365900Y-88719600D03*
X192365900Y-89219600D03*
X192365900Y-89719600D03*
X192365900Y-90219600D03*
X192365900Y-90719600D03*
D23*
X190115900Y-92969600D03*
X189615900Y-92969600D03*
X189115900Y-92969600D03*
X188615900Y-92969600D03*
X188115900Y-92969600D03*
X187615900Y-92969600D03*
X187115900Y-92969600D03*
X186615900Y-92969600D03*
X186115900Y-92969600D03*
X185615900Y-92969600D03*
X185115900Y-92969600D03*
X184615900Y-92969600D03*
X184115900Y-92969600D03*
X183615900Y-92969600D03*
X183115900Y-92969600D03*
X182615900Y-92969600D03*
D24*
X180365900Y-90719600D03*
X180365900Y-90219600D03*
X180365900Y-89719600D03*
X180365900Y-89219600D03*
X180365900Y-88719600D03*
X180365900Y-88219600D03*
X180365900Y-87719600D03*
X180365900Y-87219600D03*
X180365900Y-86719600D03*
X180365900Y-86219600D03*
X180365900Y-85719600D03*
X180365900Y-85219600D03*
X180365900Y-84719600D03*
X180365900Y-84219600D03*
X180365900Y-83719600D03*
X180365900Y-83219600D03*
D25*
X152501100Y-72003600D03*
X204501100Y-72003600D03*
X204501100Y-101003600D03*
X152501100Y-101003600D03*
D26*
X170733100Y-103733600D03*
X168433100Y-103733600D03*
D27*
X173139100Y-104241600D03*
X166027100Y-104241600D03*
D28*
X171742100Y-102082600D03*
X167424100Y-102082600D03*
D29*
X175260000Y-76174600D03*
X175260000Y-77698600D03*
D30*
X170561000Y-90735000D03*
X172085000Y-90735000D03*
X170803000Y-80575000D03*
X172327000Y-80575000D03*
D31*
X176657000Y-95885000D03*
X175133000Y-95885000D03*
D29*
X182029100Y-76555600D03*
X182029100Y-78079600D03*
D32*
X163843100Y-75793600D03*
D33*
X157543100Y-78093600D03*
X157543100Y-75793600D03*
X157543100Y-73493600D03*
D31*
X159258000Y-84074000D03*
X157734000Y-84074000D03*
X173482000Y-92710000D03*
X171958000Y-92710000D03*
D34*
X166408100Y-75539600D03*
X166408100Y-73761600D03*
D31*
X160439100Y-80619600D03*
X158915100Y-80619600D03*
X159169100Y-70713600D03*
X157645100Y-70713600D03*
X170980100Y-70713600D03*
X169456100Y-70713600D03*
D35*
X201587100Y-78841600D03*
X198539100Y-99161600D03*
X198539100Y-73761600D03*
X198542100Y-101695600D03*
X198539100Y-71221600D03*
X204127100Y-78841600D03*
D31*
X196507100Y-81889600D03*
X194983100Y-81889600D03*
D36*
X183527700Y-96469200D03*
X183527700Y-94945200D03*
D30*
X192443100Y-93319600D03*
X193967100Y-93319600D03*
X176364900Y-89738200D03*
X177888900Y-89738200D03*
X178308000Y-80010000D03*
X179832000Y-80010000D03*
X192443100Y-95351600D03*
X193967100Y-95351600D03*
X176403000Y-91440000D03*
X177927000Y-91440000D03*
D37*
X201587100Y-81381600D03*
X204127100Y-81381600D03*
X201587100Y-83921600D03*
X204127100Y-83921600D03*
X201587100Y-86461600D03*
X204127100Y-86461600D03*
X201587100Y-89001600D03*
X204127100Y-89001600D03*
X201587100Y-91541600D03*
X204127100Y-91541600D03*
X201587100Y-94081600D03*
D38*
X204127100Y-94081600D03*
D37*
X195999100Y-99161600D03*
X195999100Y-101701600D03*
X193459100Y-99161600D03*
X193459100Y-101701600D03*
X190919100Y-99161600D03*
X190919100Y-101701600D03*
X188379100Y-99161600D03*
X188379100Y-101701600D03*
X185839100Y-99161600D03*
X185839100Y-101701600D03*
X183299100Y-99161600D03*
X183299100Y-101701600D03*
X180759100Y-99161600D03*
X180759100Y-101701600D03*
X178219100Y-99161600D03*
D39*
X178219100Y-101701600D03*
D37*
X195999100Y-71221600D03*
X195999100Y-73761600D03*
X193459100Y-71221600D03*
X193459100Y-73761600D03*
X190919100Y-71221600D03*
X190919100Y-73761600D03*
X188379100Y-71221600D03*
X188379100Y-73761600D03*
X185839100Y-71221600D03*
X185839100Y-73761600D03*
X183299100Y-71221600D03*
X183299100Y-73761600D03*
X180759100Y-71221600D03*
X180759100Y-73761600D03*
X178219100Y-71221600D03*
D39*
X178219100Y-73761600D03*
D29*
X174625000Y-87503000D03*
X174625000Y-89027000D03*
D35*
X175679100Y-71221600D03*
X175679100Y-73761600D03*
X175679100Y-99161600D03*
X175679100Y-101701600D03*
D40*
X157480000Y-88036400D03*
X157480000Y-87096600D03*
X157480000Y-86156800D03*
X160020000Y-86156800D03*
X160020000Y-87096600D03*
X160020000Y-88036400D03*
D36*
X174625000Y-85852000D03*
X174625000Y-84328000D03*
D41*
X175260000Y-79603600D03*
X175260000Y-82143600D03*
D31*
X158877000Y-90398600D03*
X157353000Y-90398600D03*
X158877000Y-92075000D03*
X157353000Y-92075000D03*
D14*
X162560000Y-97256600D03*
X165100000Y-97256600D03*
X162560000Y-94716600D03*
X165100000Y-94716600D03*
D29*
X160020000Y-95758000D03*
X160020000Y-97282000D03*
X170180000Y-94208600D03*
X170180000Y-95732600D03*
D42*
X162979100Y-70713600D03*
X161455100Y-70713600D03*
X166789100Y-70713600D03*
X165265100Y-70713600D03*
D43*
X159423100Y-99415600D03*
X160947100Y-99415600D03*
D26*
X161335100Y-103733600D03*
X159035100Y-103733600D03*
D27*
X163741100Y-104241600D03*
X156629100Y-104241600D03*
D28*
X162344100Y-102082600D03*
X158026100Y-102082600D03*
D29*
X168275000Y-94208600D03*
X168275000Y-95732600D03*
D44*
X168252100Y-72396600D03*
X160252100Y-72396600D03*
D45*
X166179500Y-79375000D03*
X167005000Y-79375000D03*
X167767000Y-79375000D03*
X168592500Y-79375000D03*
X168592500Y-80899000D03*
X167767000Y-80899000D03*
X167005000Y-80899000D03*
X166179500Y-80899000D03*
D31*
X196507100Y-83667600D03*
X194983100Y-83667600D03*
D30*
X178308000Y-78740000D03*
X179832000Y-78740000D03*
D37*
X198539100Y-77063600D03*
X195999100Y-77063600D03*
X193459100Y-77063600D03*
X190919100Y-77063600D03*
X188379100Y-77063600D03*
D39*
X185839100Y-77063600D03*
D29*
X196253100Y-89255600D03*
X196253100Y-90779600D03*
D36*
X169185000Y-76972000D03*
X169185000Y-75448000D03*
D29*
X170815000Y-75438000D03*
X170815000Y-76962000D03*
G36*
X154195061Y-96927994D02*
G01*
X154195675Y-96928913D01*
X154211233Y-96939309D01*
X154229787Y-96943000D01*
X154907155Y-96943000D01*
X154908796Y-96943857D01*
X154909031Y-96945694D01*
X154907657Y-96946936D01*
X154847416Y-96962558D01*
X154802730Y-97005134D01*
X154784369Y-97064057D01*
X154796958Y-97124480D01*
X154837497Y-97171369D01*
X154890270Y-97207796D01*
X154891130Y-97209565D01*
X154890060Y-97211215D01*
X154888095Y-97211151D01*
X154807905Y-97162386D01*
X154664135Y-97122103D01*
X154589525Y-97117000D01*
X154086640Y-97117000D01*
X154085005Y-97116152D01*
X154084757Y-97114326D01*
X154086107Y-97113072D01*
X154149836Y-97095435D01*
X154195049Y-97047947D01*
X154209415Y-96983970D01*
X154191499Y-96929732D01*
X154191792Y-96927914D01*
X154193447Y-96927106D01*
X154195061Y-96927994D01*
G37*
G36*
X154197651Y-96130233D02*
G01*
X154211233Y-96139309D01*
X154229787Y-96143000D01*
X155679389Y-96143000D01*
X155697942Y-96139309D01*
X155711524Y-96130234D01*
X155713153Y-96129965D01*
X155714429Y-96131012D01*
X155714483Y-96132662D01*
X155698598Y-96171012D01*
X155698598Y-96218988D01*
X155714483Y-96257337D01*
X155714429Y-96258987D01*
X155713153Y-96260034D01*
X155711524Y-96259765D01*
X155697942Y-96250690D01*
X155679389Y-96247000D01*
X154229787Y-96247000D01*
X154211233Y-96250690D01*
X154197651Y-96259766D01*
X154196022Y-96260035D01*
X154194746Y-96258988D01*
X154194692Y-96257338D01*
X154210577Y-96218988D01*
X154210577Y-96171012D01*
X154194692Y-96132661D01*
X154194746Y-96131011D01*
X154196022Y-96129964D01*
X154197651Y-96130233D01*
G37*
G36*
X154200561Y-95282178D02*
G01*
X154211233Y-95289309D01*
X154229787Y-95293000D01*
X155679389Y-95293000D01*
X155697942Y-95289309D01*
X155708612Y-95282179D01*
X155710366Y-95281948D01*
X155711617Y-95283199D01*
X155711386Y-95284953D01*
X155702136Y-95298797D01*
X155702931Y-95300086D01*
X155702428Y-95301674D01*
X155693033Y-95312038D01*
X155678511Y-95369999D01*
X155693033Y-95427961D01*
X155702428Y-95438325D01*
X155702931Y-95439912D01*
X155702137Y-95441202D01*
X155711387Y-95455047D01*
X155711618Y-95456801D01*
X155710367Y-95458052D01*
X155708613Y-95457821D01*
X155697942Y-95450690D01*
X155679389Y-95447000D01*
X154229787Y-95447000D01*
X154211233Y-95450690D01*
X154200562Y-95457821D01*
X154198808Y-95458052D01*
X154197557Y-95456801D01*
X154197788Y-95455047D01*
X154207038Y-95441202D01*
X154206243Y-95439912D01*
X154206746Y-95438324D01*
X154216148Y-95427949D01*
X154230663Y-95370000D01*
X154216148Y-95312050D01*
X154206746Y-95301675D01*
X154206243Y-95300087D01*
X154207038Y-95298796D01*
X154197787Y-95284952D01*
X154197556Y-95283198D01*
X154198807Y-95281947D01*
X154200561Y-95282178D01*
G37*
G36*
X154197651Y-94780233D02*
G01*
X154211233Y-94789309D01*
X154229787Y-94793000D01*
X155679389Y-94793000D01*
X155697942Y-94789309D01*
X155711524Y-94780234D01*
X155713153Y-94779965D01*
X155714429Y-94781012D01*
X155714483Y-94782662D01*
X155698598Y-94821012D01*
X155698598Y-94868988D01*
X155714483Y-94907337D01*
X155714429Y-94908987D01*
X155713153Y-94910034D01*
X155711524Y-94909765D01*
X155697942Y-94900690D01*
X155679389Y-94897000D01*
X154229787Y-94897000D01*
X154211233Y-94900690D01*
X154197651Y-94909766D01*
X154196022Y-94910035D01*
X154194746Y-94908988D01*
X154194692Y-94907338D01*
X154210577Y-94868988D01*
X154210577Y-94821012D01*
X154194692Y-94782661D01*
X154194746Y-94781011D01*
X154196022Y-94779964D01*
X154197651Y-94780233D01*
G37*
G36*
X154197651Y-94280233D02*
G01*
X154211233Y-94289309D01*
X154229787Y-94293000D01*
X155679389Y-94293000D01*
X155697942Y-94289309D01*
X155711524Y-94280234D01*
X155713153Y-94279965D01*
X155714429Y-94281012D01*
X155714483Y-94282662D01*
X155698598Y-94321012D01*
X155698598Y-94368988D01*
X155714483Y-94407337D01*
X155714429Y-94408987D01*
X155713153Y-94410034D01*
X155711524Y-94409765D01*
X155697942Y-94400690D01*
X155679389Y-94397000D01*
X154229787Y-94397000D01*
X154211233Y-94400690D01*
X154197651Y-94409766D01*
X154196022Y-94410035D01*
X154194746Y-94408988D01*
X154194692Y-94407338D01*
X154210577Y-94368988D01*
X154210577Y-94321012D01*
X154194692Y-94282661D01*
X154194746Y-94281011D01*
X154196022Y-94279964D01*
X154197651Y-94280233D01*
G37*
G36*
X154197651Y-93780233D02*
G01*
X154211233Y-93789309D01*
X154229787Y-93793000D01*
X155679389Y-93793000D01*
X155697942Y-93789309D01*
X155711524Y-93780234D01*
X155713153Y-93779965D01*
X155714429Y-93781012D01*
X155714483Y-93782662D01*
X155698598Y-93821012D01*
X155698598Y-93868988D01*
X155714483Y-93907337D01*
X155714429Y-93908987D01*
X155713153Y-93910034D01*
X155711524Y-93909765D01*
X155697942Y-93900690D01*
X155679389Y-93897000D01*
X154229787Y-93897000D01*
X154211233Y-93900690D01*
X154197651Y-93909766D01*
X154196022Y-93910035D01*
X154194746Y-93908988D01*
X154194692Y-93907338D01*
X154210577Y-93868988D01*
X154210577Y-93821012D01*
X154194692Y-93782661D01*
X154194746Y-93781011D01*
X154196022Y-93779964D01*
X154197651Y-93780233D01*
G37*
G36*
X189949407Y-92329272D02*
G01*
X189949176Y-92331026D01*
X189939118Y-92346079D01*
X189934400Y-92369799D01*
X189934400Y-93569401D01*
X189939118Y-93593120D01*
X189949174Y-93608170D01*
X189949405Y-93609924D01*
X189948154Y-93611175D01*
X189946400Y-93610944D01*
X189934399Y-93602925D01*
X189889888Y-93584489D01*
X189841912Y-93584489D01*
X189797400Y-93602925D01*
X189785399Y-93610943D01*
X189783645Y-93611174D01*
X189782394Y-93609923D01*
X189782625Y-93608169D01*
X189792681Y-93593120D01*
X189797400Y-93569401D01*
X189797400Y-92369799D01*
X189792681Y-92346079D01*
X189782623Y-92331027D01*
X189782392Y-92329273D01*
X189783643Y-92328022D01*
X189785397Y-92328253D01*
X189797402Y-92336274D01*
X189841912Y-92354710D01*
X189889888Y-92354710D01*
X189934397Y-92336274D01*
X189946402Y-92328252D01*
X189948156Y-92328021D01*
X189949407Y-92329272D01*
G37*
G36*
X189449407Y-92329272D02*
G01*
X189449176Y-92331026D01*
X189439118Y-92346079D01*
X189434400Y-92369799D01*
X189434400Y-93569401D01*
X189439118Y-93593120D01*
X189449174Y-93608170D01*
X189449405Y-93609924D01*
X189448154Y-93611175D01*
X189446400Y-93610944D01*
X189434399Y-93602925D01*
X189389888Y-93584489D01*
X189341912Y-93584489D01*
X189297400Y-93602925D01*
X189285399Y-93610943D01*
X189283645Y-93611174D01*
X189282394Y-93609923D01*
X189282625Y-93608169D01*
X189292681Y-93593120D01*
X189297400Y-93569401D01*
X189297400Y-92369799D01*
X189292681Y-92346079D01*
X189282623Y-92331027D01*
X189282392Y-92329273D01*
X189283643Y-92328022D01*
X189285397Y-92328253D01*
X189297402Y-92336274D01*
X189341912Y-92354710D01*
X189389888Y-92354710D01*
X189434397Y-92336274D01*
X189446402Y-92328252D01*
X189448156Y-92328021D01*
X189449407Y-92329272D01*
G37*
G36*
X188949407Y-92329272D02*
G01*
X188949176Y-92331026D01*
X188939118Y-92346079D01*
X188934400Y-92369799D01*
X188934400Y-93569401D01*
X188939118Y-93593120D01*
X188949174Y-93608170D01*
X188949405Y-93609924D01*
X188948154Y-93611175D01*
X188946400Y-93610944D01*
X188934399Y-93602925D01*
X188889888Y-93584489D01*
X188841912Y-93584489D01*
X188797400Y-93602925D01*
X188785399Y-93610943D01*
X188783645Y-93611174D01*
X188782394Y-93609923D01*
X188782625Y-93608169D01*
X188792681Y-93593120D01*
X188797400Y-93569401D01*
X188797400Y-92369799D01*
X188792681Y-92346079D01*
X188782623Y-92331027D01*
X188782392Y-92329273D01*
X188783643Y-92328022D01*
X188785397Y-92328253D01*
X188797402Y-92336274D01*
X188841912Y-92354710D01*
X188889888Y-92354710D01*
X188934397Y-92336274D01*
X188946402Y-92328252D01*
X188948156Y-92328021D01*
X188949407Y-92329272D01*
G37*
G36*
X188449407Y-92329272D02*
G01*
X188449176Y-92331026D01*
X188439118Y-92346079D01*
X188434400Y-92369799D01*
X188434400Y-93569401D01*
X188439118Y-93593120D01*
X188449174Y-93608170D01*
X188449405Y-93609924D01*
X188448154Y-93611175D01*
X188446400Y-93610944D01*
X188434399Y-93602925D01*
X188389888Y-93584489D01*
X188341912Y-93584489D01*
X188297400Y-93602925D01*
X188285399Y-93610943D01*
X188283645Y-93611174D01*
X188282394Y-93609923D01*
X188282625Y-93608169D01*
X188292681Y-93593120D01*
X188297400Y-93569401D01*
X188297400Y-92369799D01*
X188292681Y-92346079D01*
X188282623Y-92331027D01*
X188282392Y-92329273D01*
X188283643Y-92328022D01*
X188285397Y-92328253D01*
X188297402Y-92336274D01*
X188341912Y-92354710D01*
X188389888Y-92354710D01*
X188434397Y-92336274D01*
X188446402Y-92328252D01*
X188448156Y-92328021D01*
X188449407Y-92329272D01*
G37*
G36*
X187949407Y-92329272D02*
G01*
X187949176Y-92331026D01*
X187939118Y-92346079D01*
X187934400Y-92369799D01*
X187934400Y-93569401D01*
X187939118Y-93593120D01*
X187949174Y-93608170D01*
X187949405Y-93609924D01*
X187948154Y-93611175D01*
X187946400Y-93610944D01*
X187934399Y-93602925D01*
X187889888Y-93584489D01*
X187841912Y-93584489D01*
X187797400Y-93602925D01*
X187785399Y-93610943D01*
X187783645Y-93611174D01*
X187782394Y-93609923D01*
X187782625Y-93608169D01*
X187792681Y-93593120D01*
X187797400Y-93569401D01*
X187797400Y-92369799D01*
X187792681Y-92346079D01*
X187782623Y-92331027D01*
X187782392Y-92329273D01*
X187783643Y-92328022D01*
X187785397Y-92328253D01*
X187797402Y-92336274D01*
X187841912Y-92354710D01*
X187889888Y-92354710D01*
X187934397Y-92336274D01*
X187946402Y-92328252D01*
X187948156Y-92328021D01*
X187949407Y-92329272D01*
G37*
G36*
X187449407Y-92329272D02*
G01*
X187449176Y-92331026D01*
X187439118Y-92346079D01*
X187434400Y-92369799D01*
X187434400Y-93569401D01*
X187439118Y-93593120D01*
X187449174Y-93608170D01*
X187449405Y-93609924D01*
X187448154Y-93611175D01*
X187446400Y-93610944D01*
X187434399Y-93602925D01*
X187389888Y-93584489D01*
X187341912Y-93584489D01*
X187297400Y-93602925D01*
X187285399Y-93610943D01*
X187283645Y-93611174D01*
X187282394Y-93609923D01*
X187282625Y-93608169D01*
X187292681Y-93593120D01*
X187297400Y-93569401D01*
X187297400Y-92369799D01*
X187292681Y-92346079D01*
X187282623Y-92331027D01*
X187282392Y-92329273D01*
X187283643Y-92328022D01*
X187285397Y-92328253D01*
X187297402Y-92336274D01*
X187341912Y-92354710D01*
X187389888Y-92354710D01*
X187434397Y-92336274D01*
X187446402Y-92328252D01*
X187448156Y-92328021D01*
X187449407Y-92329272D01*
G37*
G36*
X186949407Y-92329272D02*
G01*
X186949176Y-92331026D01*
X186939118Y-92346079D01*
X186934400Y-92369799D01*
X186934400Y-93569401D01*
X186939118Y-93593120D01*
X186949174Y-93608170D01*
X186949405Y-93609924D01*
X186948154Y-93611175D01*
X186946400Y-93610944D01*
X186934399Y-93602925D01*
X186889888Y-93584489D01*
X186841912Y-93584489D01*
X186797400Y-93602925D01*
X186785399Y-93610943D01*
X186783645Y-93611174D01*
X186782394Y-93609923D01*
X186782625Y-93608169D01*
X186792681Y-93593120D01*
X186797400Y-93569401D01*
X186797400Y-92369799D01*
X186792681Y-92346079D01*
X186782623Y-92331027D01*
X186782392Y-92329273D01*
X186783643Y-92328022D01*
X186785397Y-92328253D01*
X186797402Y-92336274D01*
X186841912Y-92354710D01*
X186889888Y-92354710D01*
X186934397Y-92336274D01*
X186946402Y-92328252D01*
X186948156Y-92328021D01*
X186949407Y-92329272D01*
G37*
G36*
X186449407Y-92329272D02*
G01*
X186449176Y-92331026D01*
X186439118Y-92346079D01*
X186434400Y-92369799D01*
X186434400Y-93569401D01*
X186439118Y-93593120D01*
X186449174Y-93608170D01*
X186449405Y-93609924D01*
X186448154Y-93611175D01*
X186446400Y-93610944D01*
X186434399Y-93602925D01*
X186389888Y-93584489D01*
X186341912Y-93584489D01*
X186297400Y-93602925D01*
X186285399Y-93610943D01*
X186283645Y-93611174D01*
X186282394Y-93609923D01*
X186282625Y-93608169D01*
X186292681Y-93593120D01*
X186297400Y-93569401D01*
X186297400Y-92369799D01*
X186292681Y-92346079D01*
X186282623Y-92331027D01*
X186282392Y-92329273D01*
X186283643Y-92328022D01*
X186285397Y-92328253D01*
X186297402Y-92336274D01*
X186341912Y-92354710D01*
X186389888Y-92354710D01*
X186434397Y-92336274D01*
X186446402Y-92328252D01*
X186448156Y-92328021D01*
X186449407Y-92329272D01*
G37*
G36*
X185949407Y-92329272D02*
G01*
X185949176Y-92331026D01*
X185939118Y-92346079D01*
X185934400Y-92369799D01*
X185934400Y-93569401D01*
X185939118Y-93593120D01*
X185949174Y-93608170D01*
X185949405Y-93609924D01*
X185948154Y-93611175D01*
X185946400Y-93610944D01*
X185934399Y-93602925D01*
X185889888Y-93584489D01*
X185841912Y-93584489D01*
X185797400Y-93602925D01*
X185785399Y-93610943D01*
X185783645Y-93611174D01*
X185782394Y-93609923D01*
X185782625Y-93608169D01*
X185792681Y-93593120D01*
X185797400Y-93569401D01*
X185797400Y-92369799D01*
X185792681Y-92346079D01*
X185782623Y-92331027D01*
X185782392Y-92329273D01*
X185783643Y-92328022D01*
X185785397Y-92328253D01*
X185797402Y-92336274D01*
X185841912Y-92354710D01*
X185889888Y-92354710D01*
X185934397Y-92336274D01*
X185946402Y-92328252D01*
X185948156Y-92328021D01*
X185949407Y-92329272D01*
G37*
G36*
X185449407Y-92329272D02*
G01*
X185449176Y-92331026D01*
X185439118Y-92346079D01*
X185434400Y-92369799D01*
X185434400Y-93569401D01*
X185439118Y-93593120D01*
X185449174Y-93608170D01*
X185449405Y-93609924D01*
X185448154Y-93611175D01*
X185446400Y-93610944D01*
X185434399Y-93602925D01*
X185389888Y-93584489D01*
X185341912Y-93584489D01*
X185297400Y-93602925D01*
X185285399Y-93610943D01*
X185283645Y-93611174D01*
X185282394Y-93609923D01*
X185282625Y-93608169D01*
X185292681Y-93593120D01*
X185297400Y-93569401D01*
X185297400Y-92369799D01*
X185292681Y-92346079D01*
X185282623Y-92331027D01*
X185282392Y-92329273D01*
X185283643Y-92328022D01*
X185285397Y-92328253D01*
X185297402Y-92336274D01*
X185341912Y-92354710D01*
X185389888Y-92354710D01*
X185434397Y-92336274D01*
X185446402Y-92328252D01*
X185448156Y-92328021D01*
X185449407Y-92329272D01*
G37*
G36*
X184949407Y-92329272D02*
G01*
X184949176Y-92331026D01*
X184939118Y-92346079D01*
X184934400Y-92369799D01*
X184934400Y-93569401D01*
X184939118Y-93593120D01*
X184949174Y-93608170D01*
X184949405Y-93609924D01*
X184948154Y-93611175D01*
X184946400Y-93610944D01*
X184934399Y-93602925D01*
X184889888Y-93584489D01*
X184841912Y-93584489D01*
X184797400Y-93602925D01*
X184785399Y-93610943D01*
X184783645Y-93611174D01*
X184782394Y-93609923D01*
X184782625Y-93608169D01*
X184792681Y-93593120D01*
X184797400Y-93569401D01*
X184797400Y-92369799D01*
X184792681Y-92346079D01*
X184782623Y-92331027D01*
X184782392Y-92329273D01*
X184783643Y-92328022D01*
X184785397Y-92328253D01*
X184797402Y-92336274D01*
X184841912Y-92354710D01*
X184889888Y-92354710D01*
X184934397Y-92336274D01*
X184946402Y-92328252D01*
X184948156Y-92328021D01*
X184949407Y-92329272D01*
G37*
G36*
X184449407Y-92329272D02*
G01*
X184449176Y-92331026D01*
X184439118Y-92346079D01*
X184434400Y-92369799D01*
X184434400Y-93569401D01*
X184439118Y-93593120D01*
X184449174Y-93608170D01*
X184449405Y-93609924D01*
X184448154Y-93611175D01*
X184446400Y-93610944D01*
X184434399Y-93602925D01*
X184389888Y-93584489D01*
X184341912Y-93584489D01*
X184297400Y-93602925D01*
X184285399Y-93610943D01*
X184283645Y-93611174D01*
X184282394Y-93609923D01*
X184282625Y-93608169D01*
X184292681Y-93593120D01*
X184297400Y-93569401D01*
X184297400Y-92369799D01*
X184292681Y-92346079D01*
X184282623Y-92331027D01*
X184282392Y-92329273D01*
X184283643Y-92328022D01*
X184285397Y-92328253D01*
X184297402Y-92336274D01*
X184341912Y-92354710D01*
X184389888Y-92354710D01*
X184434397Y-92336274D01*
X184446402Y-92328252D01*
X184448156Y-92328021D01*
X184449407Y-92329272D01*
G37*
G36*
X183949407Y-92329272D02*
G01*
X183949176Y-92331026D01*
X183939118Y-92346079D01*
X183934400Y-92369799D01*
X183934400Y-93569401D01*
X183939118Y-93593120D01*
X183949174Y-93608170D01*
X183949405Y-93609924D01*
X183948154Y-93611175D01*
X183946400Y-93610944D01*
X183934399Y-93602925D01*
X183889888Y-93584489D01*
X183841912Y-93584489D01*
X183797400Y-93602925D01*
X183785399Y-93610943D01*
X183783645Y-93611174D01*
X183782394Y-93609923D01*
X183782625Y-93608169D01*
X183792681Y-93593120D01*
X183797400Y-93569401D01*
X183797400Y-92369799D01*
X183792681Y-92346079D01*
X183782623Y-92331027D01*
X183782392Y-92329273D01*
X183783643Y-92328022D01*
X183785397Y-92328253D01*
X183797402Y-92336274D01*
X183841912Y-92354710D01*
X183889888Y-92354710D01*
X183934397Y-92336274D01*
X183946402Y-92328252D01*
X183948156Y-92328021D01*
X183949407Y-92329272D01*
G37*
G36*
X183449407Y-92329272D02*
G01*
X183449176Y-92331026D01*
X183439118Y-92346079D01*
X183434400Y-92369799D01*
X183434400Y-93569401D01*
X183439118Y-93593120D01*
X183449174Y-93608170D01*
X183449405Y-93609924D01*
X183448154Y-93611175D01*
X183446400Y-93610944D01*
X183434399Y-93602925D01*
X183389888Y-93584489D01*
X183341912Y-93584489D01*
X183297400Y-93602925D01*
X183285399Y-93610943D01*
X183283645Y-93611174D01*
X183282394Y-93609923D01*
X183282625Y-93608169D01*
X183292681Y-93593120D01*
X183297400Y-93569401D01*
X183297400Y-92369799D01*
X183292681Y-92346079D01*
X183282623Y-92331027D01*
X183282392Y-92329273D01*
X183283643Y-92328022D01*
X183285397Y-92328253D01*
X183297402Y-92336274D01*
X183341912Y-92354710D01*
X183389888Y-92354710D01*
X183434397Y-92336274D01*
X183446402Y-92328252D01*
X183448156Y-92328021D01*
X183449407Y-92329272D01*
G37*
G36*
X182949407Y-92329272D02*
G01*
X182949176Y-92331026D01*
X182939118Y-92346079D01*
X182934400Y-92369799D01*
X182934400Y-93569401D01*
X182939118Y-93593120D01*
X182949174Y-93608170D01*
X182949405Y-93609924D01*
X182948154Y-93611175D01*
X182946400Y-93610944D01*
X182934399Y-93602925D01*
X182889888Y-93584489D01*
X182841912Y-93584489D01*
X182797400Y-93602925D01*
X182785399Y-93610943D01*
X182783645Y-93611174D01*
X182782394Y-93609923D01*
X182782625Y-93608169D01*
X182792681Y-93593120D01*
X182797400Y-93569401D01*
X182797400Y-92369799D01*
X182792681Y-92346079D01*
X182782623Y-92331027D01*
X182782392Y-92329273D01*
X182783643Y-92328022D01*
X182785397Y-92328253D01*
X182797402Y-92336274D01*
X182841912Y-92354710D01*
X182889888Y-92354710D01*
X182934397Y-92336274D01*
X182946402Y-92328252D01*
X182948156Y-92328021D01*
X182949407Y-92329272D01*
G37*
G36*
X154197651Y-93280233D02*
G01*
X154211233Y-93289309D01*
X154229787Y-93293000D01*
X155679389Y-93293000D01*
X155697942Y-93289309D01*
X155711524Y-93280234D01*
X155713153Y-93279965D01*
X155714429Y-93281012D01*
X155714483Y-93282662D01*
X155698598Y-93321012D01*
X155698598Y-93368988D01*
X155714483Y-93407337D01*
X155714429Y-93408987D01*
X155713153Y-93410034D01*
X155711524Y-93409765D01*
X155697942Y-93400690D01*
X155679389Y-93397000D01*
X154229787Y-93397000D01*
X154211233Y-93400690D01*
X154197651Y-93409766D01*
X154196022Y-93410035D01*
X154194746Y-93408988D01*
X154194692Y-93407338D01*
X154210577Y-93368988D01*
X154210577Y-93321012D01*
X154194692Y-93282661D01*
X154194746Y-93281011D01*
X154196022Y-93279964D01*
X154197651Y-93280233D01*
G37*
G36*
X154197651Y-92780233D02*
G01*
X154211233Y-92789309D01*
X154229787Y-92793000D01*
X155679389Y-92793000D01*
X155697942Y-92789309D01*
X155711524Y-92780234D01*
X155713153Y-92779965D01*
X155714429Y-92781012D01*
X155714483Y-92782662D01*
X155698598Y-92821012D01*
X155698598Y-92868988D01*
X155714483Y-92907337D01*
X155714429Y-92908987D01*
X155713153Y-92910034D01*
X155711524Y-92909765D01*
X155697942Y-92900690D01*
X155679389Y-92897000D01*
X154229787Y-92897000D01*
X154211233Y-92900690D01*
X154197651Y-92909766D01*
X154196022Y-92910035D01*
X154194746Y-92908988D01*
X154194692Y-92907338D01*
X154210577Y-92868988D01*
X154210577Y-92821012D01*
X154194692Y-92782661D01*
X154194746Y-92781011D01*
X154196022Y-92779964D01*
X154197651Y-92780233D01*
G37*
G36*
X154197651Y-92280233D02*
G01*
X154211233Y-92289309D01*
X154229787Y-92293000D01*
X155679389Y-92293000D01*
X155697942Y-92289309D01*
X155711524Y-92280234D01*
X155713153Y-92279965D01*
X155714429Y-92281012D01*
X155714483Y-92282662D01*
X155698598Y-92321012D01*
X155698598Y-92368988D01*
X155714483Y-92407337D01*
X155714429Y-92408987D01*
X155713153Y-92410034D01*
X155711524Y-92409765D01*
X155697942Y-92400690D01*
X155679389Y-92397000D01*
X154229787Y-92397000D01*
X154211233Y-92400690D01*
X154197651Y-92409766D01*
X154196022Y-92410035D01*
X154194746Y-92408988D01*
X154194692Y-92407338D01*
X154210577Y-92368988D01*
X154210577Y-92321012D01*
X154194692Y-92282661D01*
X154194746Y-92281011D01*
X154196022Y-92279964D01*
X154197651Y-92280233D01*
G37*
G36*
X155714429Y-91781012D02*
G01*
X155714483Y-91782662D01*
X155698598Y-91821012D01*
X155698598Y-91868988D01*
X155714483Y-91907337D01*
X155714429Y-91908987D01*
X155713153Y-91910034D01*
X155711524Y-91909765D01*
X155697942Y-91900690D01*
X155679389Y-91897000D01*
X154229787Y-91897000D01*
X154211233Y-91900690D01*
X154197651Y-91909766D01*
X154196022Y-91910035D01*
X154194746Y-91908988D01*
X154194692Y-91907338D01*
X154210577Y-91868984D01*
X154210577Y-91821010D01*
X154194692Y-91782662D01*
X154194746Y-91781012D01*
X154196022Y-91779965D01*
X154197651Y-91780234D01*
X154211233Y-91789309D01*
X154229787Y-91793000D01*
X155679389Y-91793000D01*
X155697942Y-91789309D01*
X155711524Y-91780234D01*
X155713153Y-91779965D01*
X155714429Y-91781012D01*
G37*
G36*
X154200561Y-91232178D02*
G01*
X154211233Y-91239309D01*
X154229787Y-91243000D01*
X155679389Y-91243000D01*
X155697942Y-91239309D01*
X155708612Y-91232179D01*
X155710366Y-91231948D01*
X155711617Y-91233199D01*
X155711386Y-91234953D01*
X155702136Y-91248797D01*
X155702931Y-91250086D01*
X155702428Y-91251674D01*
X155693033Y-91262038D01*
X155678511Y-91320000D01*
X155693033Y-91377961D01*
X155702428Y-91388325D01*
X155702931Y-91389912D01*
X155702137Y-91391202D01*
X155711387Y-91405047D01*
X155711618Y-91406801D01*
X155710367Y-91408052D01*
X155708613Y-91407821D01*
X155697942Y-91400690D01*
X155679389Y-91397000D01*
X154229787Y-91397000D01*
X154211233Y-91400690D01*
X154200562Y-91407821D01*
X154198808Y-91408052D01*
X154197557Y-91406801D01*
X154197788Y-91405047D01*
X154207038Y-91391202D01*
X154206243Y-91389912D01*
X154206746Y-91388324D01*
X154216148Y-91377949D01*
X154230663Y-91320000D01*
X154216148Y-91262050D01*
X154206746Y-91251675D01*
X154206243Y-91250087D01*
X154207038Y-91248796D01*
X154197787Y-91234952D01*
X154197556Y-91233198D01*
X154198807Y-91231947D01*
X154200561Y-91232178D01*
G37*
G36*
X154197651Y-90430233D02*
G01*
X154211233Y-90439309D01*
X154229787Y-90443000D01*
X155679389Y-90443000D01*
X155697942Y-90439309D01*
X155711524Y-90430234D01*
X155713153Y-90429965D01*
X155714429Y-90431012D01*
X155714483Y-90432662D01*
X155698598Y-90471012D01*
X155698598Y-90518988D01*
X155714483Y-90557337D01*
X155714429Y-90558987D01*
X155713153Y-90560034D01*
X155711524Y-90559765D01*
X155697942Y-90550690D01*
X155679389Y-90547000D01*
X154229787Y-90547000D01*
X154211233Y-90550690D01*
X154197651Y-90559766D01*
X154196022Y-90560035D01*
X154194746Y-90558988D01*
X154194692Y-90557338D01*
X154210577Y-90518988D01*
X154210577Y-90471012D01*
X154194692Y-90432661D01*
X154194746Y-90431011D01*
X154196022Y-90429964D01*
X154197651Y-90430233D01*
G37*
G36*
X191727327Y-90386323D02*
G01*
X191742379Y-90396381D01*
X191766099Y-90401100D01*
X192965701Y-90401100D01*
X192989420Y-90396381D01*
X193004471Y-90386325D01*
X193006225Y-90386094D01*
X193007476Y-90387345D01*
X193007245Y-90389099D01*
X192999226Y-90401099D01*
X192980789Y-90445610D01*
X192980789Y-90493586D01*
X192999224Y-90538097D01*
X193007244Y-90550100D01*
X193007475Y-90551854D01*
X193006224Y-90553105D01*
X193004470Y-90552874D01*
X192989420Y-90542818D01*
X192965701Y-90538100D01*
X191766099Y-90538100D01*
X191742379Y-90542818D01*
X191727326Y-90552876D01*
X191725572Y-90553107D01*
X191724321Y-90551856D01*
X191724552Y-90550102D01*
X191732574Y-90538097D01*
X191751010Y-90493588D01*
X191751010Y-90445612D01*
X191732574Y-90401102D01*
X191724553Y-90389097D01*
X191724322Y-90387343D01*
X191725573Y-90386092D01*
X191727327Y-90386323D01*
G37*
G36*
X179727327Y-90386323D02*
G01*
X179742379Y-90396381D01*
X179766099Y-90401100D01*
X180965701Y-90401100D01*
X180989420Y-90396381D01*
X181004471Y-90386325D01*
X181006225Y-90386094D01*
X181007476Y-90387345D01*
X181007245Y-90389099D01*
X180999226Y-90401099D01*
X180980789Y-90445610D01*
X180980789Y-90493586D01*
X180999224Y-90538097D01*
X181007244Y-90550100D01*
X181007475Y-90551854D01*
X181006224Y-90553105D01*
X181004470Y-90552874D01*
X180989420Y-90542818D01*
X180965701Y-90538100D01*
X179766099Y-90538100D01*
X179742379Y-90542818D01*
X179727326Y-90552876D01*
X179725572Y-90553107D01*
X179724321Y-90551856D01*
X179724552Y-90550102D01*
X179732574Y-90538097D01*
X179751010Y-90493588D01*
X179751010Y-90445612D01*
X179732574Y-90401102D01*
X179724553Y-90389097D01*
X179724322Y-90387343D01*
X179725573Y-90386092D01*
X179727327Y-90386323D01*
G37*
G36*
X191727327Y-89886323D02*
G01*
X191742379Y-89896381D01*
X191766099Y-89901100D01*
X192965701Y-89901100D01*
X192989420Y-89896381D01*
X193004469Y-89886325D01*
X193006223Y-89886094D01*
X193007474Y-89887345D01*
X193007243Y-89889099D01*
X192999225Y-89901100D01*
X192980789Y-89945612D01*
X192980789Y-89993588D01*
X192999225Y-90038099D01*
X193007244Y-90050100D01*
X193007475Y-90051854D01*
X193006224Y-90053105D01*
X193004470Y-90052874D01*
X192989420Y-90042818D01*
X192965701Y-90038100D01*
X191766099Y-90038100D01*
X191742379Y-90042818D01*
X191727326Y-90052876D01*
X191725572Y-90053107D01*
X191724321Y-90051856D01*
X191724552Y-90050102D01*
X191732574Y-90038097D01*
X191751010Y-89993588D01*
X191751010Y-89945612D01*
X191732574Y-89901102D01*
X191724553Y-89889097D01*
X191724322Y-89887343D01*
X191725573Y-89886092D01*
X191727327Y-89886323D01*
G37*
G36*
X179727327Y-89886323D02*
G01*
X179742379Y-89896381D01*
X179766099Y-89901100D01*
X180965701Y-89901100D01*
X180989420Y-89896381D01*
X181004469Y-89886325D01*
X181006223Y-89886094D01*
X181007474Y-89887345D01*
X181007243Y-89889099D01*
X180999225Y-89901100D01*
X180980789Y-89945612D01*
X180980789Y-89993588D01*
X180999225Y-90038099D01*
X181007244Y-90050100D01*
X181007475Y-90051854D01*
X181006224Y-90053105D01*
X181004470Y-90052874D01*
X180989420Y-90042818D01*
X180965701Y-90038100D01*
X179766099Y-90038100D01*
X179742379Y-90042818D01*
X179727326Y-90052876D01*
X179725572Y-90053107D01*
X179724321Y-90051856D01*
X179724552Y-90050102D01*
X179732574Y-90038097D01*
X179751010Y-89993588D01*
X179751010Y-89945612D01*
X179732574Y-89901102D01*
X179724553Y-89889097D01*
X179724322Y-89887343D01*
X179725573Y-89886092D01*
X179727327Y-89886323D01*
G37*
G36*
X154857431Y-89501507D02*
G01*
X154858347Y-89503156D01*
X154857483Y-89504834D01*
X154837498Y-89518629D01*
X154796959Y-89565517D01*
X154784369Y-89625941D01*
X154802730Y-89684863D01*
X154847416Y-89727440D01*
X154907661Y-89743064D01*
X154909035Y-89744306D01*
X154908800Y-89746143D01*
X154907159Y-89747000D01*
X154229787Y-89747000D01*
X154211233Y-89750690D01*
X154195675Y-89761086D01*
X154195061Y-89762006D01*
X154193447Y-89762893D01*
X154191791Y-89762085D01*
X154191499Y-89760267D01*
X154209415Y-89706029D01*
X154195049Y-89642052D01*
X154149836Y-89594564D01*
X154086107Y-89576928D01*
X154084757Y-89575674D01*
X154085005Y-89573848D01*
X154086640Y-89573000D01*
X154589454Y-89573000D01*
X154737431Y-89552661D01*
X154855550Y-89501354D01*
X154857431Y-89501507D01*
G37*
G36*
X191727327Y-89386324D02*
G01*
X191742379Y-89396381D01*
X191766099Y-89401100D01*
X192965701Y-89401100D01*
X192989420Y-89396381D01*
X193004469Y-89386325D01*
X193006223Y-89386094D01*
X193007474Y-89387345D01*
X193007243Y-89389099D01*
X192999225Y-89401100D01*
X192980789Y-89445612D01*
X192980789Y-89493588D01*
X192999225Y-89538099D01*
X193007244Y-89550100D01*
X193007475Y-89551854D01*
X193006224Y-89553105D01*
X193004470Y-89552874D01*
X192989420Y-89542818D01*
X192965701Y-89538100D01*
X191766099Y-89538100D01*
X191742379Y-89542818D01*
X191727324Y-89552878D01*
X191725570Y-89553109D01*
X191724319Y-89551858D01*
X191724550Y-89550104D01*
X191732574Y-89538095D01*
X191751010Y-89493586D01*
X191751010Y-89445610D01*
X191732573Y-89401100D01*
X191724553Y-89389098D01*
X191724322Y-89387344D01*
X191725573Y-89386093D01*
X191727327Y-89386324D01*
G37*
G36*
X179727327Y-89386324D02*
G01*
X179742379Y-89396381D01*
X179766099Y-89401100D01*
X180965701Y-89401100D01*
X180989420Y-89396381D01*
X181004469Y-89386325D01*
X181006223Y-89386094D01*
X181007474Y-89387345D01*
X181007243Y-89389099D01*
X180999225Y-89401100D01*
X180980789Y-89445612D01*
X180980789Y-89493588D01*
X180999225Y-89538099D01*
X181007244Y-89550100D01*
X181007475Y-89551854D01*
X181006224Y-89553105D01*
X181004470Y-89552874D01*
X180989420Y-89542818D01*
X180965701Y-89538100D01*
X179766099Y-89538100D01*
X179742379Y-89542818D01*
X179727324Y-89552878D01*
X179725570Y-89553109D01*
X179724319Y-89551858D01*
X179724550Y-89550104D01*
X179732574Y-89538095D01*
X179751010Y-89493586D01*
X179751010Y-89445610D01*
X179732573Y-89401100D01*
X179724553Y-89389098D01*
X179724322Y-89387344D01*
X179725573Y-89386093D01*
X179727327Y-89386324D01*
G37*
G36*
X191727327Y-88886323D02*
G01*
X191742379Y-88896381D01*
X191766099Y-88901100D01*
X192965701Y-88901100D01*
X192989420Y-88896381D01*
X193004469Y-88886325D01*
X193006223Y-88886094D01*
X193007474Y-88887345D01*
X193007243Y-88889099D01*
X192999225Y-88901100D01*
X192980789Y-88945612D01*
X192980789Y-88993588D01*
X192999225Y-89038099D01*
X193007244Y-89050100D01*
X193007475Y-89051854D01*
X193006224Y-89053105D01*
X193004470Y-89052874D01*
X192989420Y-89042818D01*
X192965701Y-89038100D01*
X191766099Y-89038100D01*
X191742379Y-89042818D01*
X191727326Y-89052876D01*
X191725572Y-89053107D01*
X191724321Y-89051856D01*
X191724552Y-89050102D01*
X191732574Y-89038097D01*
X191751010Y-88993588D01*
X191751010Y-88945612D01*
X191732574Y-88901102D01*
X191724553Y-88889097D01*
X191724322Y-88887343D01*
X191725573Y-88886092D01*
X191727327Y-88886323D01*
G37*
G36*
X179727327Y-88886323D02*
G01*
X179742379Y-88896381D01*
X179766099Y-88901100D01*
X180965701Y-88901100D01*
X180989420Y-88896381D01*
X181004469Y-88886325D01*
X181006223Y-88886094D01*
X181007474Y-88887345D01*
X181007243Y-88889099D01*
X180999225Y-88901100D01*
X180980789Y-88945612D01*
X180980789Y-88993588D01*
X180999225Y-89038099D01*
X181007244Y-89050100D01*
X181007475Y-89051854D01*
X181006224Y-89053105D01*
X181004470Y-89052874D01*
X180989420Y-89042818D01*
X180965701Y-89038100D01*
X179766099Y-89038100D01*
X179742379Y-89042818D01*
X179727326Y-89052876D01*
X179725572Y-89053107D01*
X179724321Y-89051856D01*
X179724552Y-89050102D01*
X179732574Y-89038097D01*
X179751010Y-88993588D01*
X179751010Y-88945612D01*
X179732574Y-88901102D01*
X179724553Y-88889097D01*
X179724322Y-88887343D01*
X179725573Y-88886092D01*
X179727327Y-88886323D01*
G37*
G36*
X191727327Y-88386323D02*
G01*
X191742379Y-88396381D01*
X191766099Y-88401100D01*
X192965701Y-88401100D01*
X192989420Y-88396381D01*
X193004471Y-88386325D01*
X193006225Y-88386094D01*
X193007476Y-88387345D01*
X193007245Y-88389099D01*
X192999226Y-88401099D01*
X192980789Y-88445610D01*
X192980789Y-88493586D01*
X192999224Y-88538097D01*
X193007244Y-88550100D01*
X193007475Y-88551854D01*
X193006224Y-88553105D01*
X193004470Y-88552874D01*
X192989420Y-88542818D01*
X192965701Y-88538100D01*
X191766099Y-88538100D01*
X191742379Y-88542818D01*
X191727326Y-88552876D01*
X191725572Y-88553107D01*
X191724321Y-88551856D01*
X191724552Y-88550102D01*
X191732574Y-88538097D01*
X191751010Y-88493588D01*
X191751010Y-88445612D01*
X191732574Y-88401102D01*
X191724553Y-88389097D01*
X191724322Y-88387343D01*
X191725573Y-88386092D01*
X191727327Y-88386323D01*
G37*
G36*
X179727327Y-88386323D02*
G01*
X179742379Y-88396381D01*
X179766099Y-88401100D01*
X180965701Y-88401100D01*
X180989420Y-88396381D01*
X181004471Y-88386325D01*
X181006225Y-88386094D01*
X181007476Y-88387345D01*
X181007245Y-88389099D01*
X180999226Y-88401099D01*
X180980789Y-88445610D01*
X180980789Y-88493586D01*
X180999224Y-88538097D01*
X181007244Y-88550100D01*
X181007475Y-88551854D01*
X181006224Y-88553105D01*
X181004470Y-88552874D01*
X180989420Y-88542818D01*
X180965701Y-88538100D01*
X179766099Y-88538100D01*
X179742379Y-88542818D01*
X179727326Y-88552876D01*
X179725572Y-88553107D01*
X179724321Y-88551856D01*
X179724552Y-88550102D01*
X179732574Y-88538097D01*
X179751010Y-88493588D01*
X179751010Y-88445612D01*
X179732574Y-88401102D01*
X179724553Y-88389097D01*
X179724322Y-88387343D01*
X179725573Y-88386092D01*
X179727327Y-88386323D01*
G37*
G36*
X191727327Y-87886323D02*
G01*
X191742379Y-87896381D01*
X191766099Y-87901100D01*
X192965701Y-87901100D01*
X192989420Y-87896381D01*
X193004469Y-87886325D01*
X193006223Y-87886094D01*
X193007474Y-87887345D01*
X193007243Y-87889099D01*
X192999225Y-87901100D01*
X192980789Y-87945612D01*
X192980789Y-87993588D01*
X192999225Y-88038099D01*
X193007244Y-88050100D01*
X193007475Y-88051854D01*
X193006224Y-88053105D01*
X193004470Y-88052874D01*
X192989420Y-88042818D01*
X192965701Y-88038100D01*
X191766099Y-88038100D01*
X191742379Y-88042818D01*
X191727326Y-88052876D01*
X191725572Y-88053107D01*
X191724321Y-88051856D01*
X191724552Y-88050102D01*
X191732574Y-88038097D01*
X191751010Y-87993588D01*
X191751010Y-87945612D01*
X191732574Y-87901102D01*
X191724553Y-87889097D01*
X191724322Y-87887343D01*
X191725573Y-87886092D01*
X191727327Y-87886323D01*
G37*
G36*
X179727327Y-87886323D02*
G01*
X179742379Y-87896381D01*
X179766099Y-87901100D01*
X180965701Y-87901100D01*
X180989420Y-87896381D01*
X181004469Y-87886325D01*
X181006223Y-87886094D01*
X181007474Y-87887345D01*
X181007243Y-87889099D01*
X180999225Y-87901100D01*
X180980789Y-87945612D01*
X180980789Y-87993588D01*
X180999225Y-88038099D01*
X181007244Y-88050100D01*
X181007475Y-88051854D01*
X181006224Y-88053105D01*
X181004470Y-88052874D01*
X180989420Y-88042818D01*
X180965701Y-88038100D01*
X179766099Y-88038100D01*
X179742379Y-88042818D01*
X179727326Y-88052876D01*
X179725572Y-88053107D01*
X179724321Y-88051856D01*
X179724552Y-88050102D01*
X179732574Y-88038097D01*
X179751010Y-87993588D01*
X179751010Y-87945612D01*
X179732574Y-87901102D01*
X179724553Y-87889097D01*
X179724322Y-87887343D01*
X179725573Y-87886092D01*
X179727327Y-87886323D01*
G37*
G36*
X191727327Y-87386323D02*
G01*
X191742379Y-87396381D01*
X191766099Y-87401100D01*
X192965701Y-87401100D01*
X192989420Y-87396381D01*
X193004469Y-87386325D01*
X193006223Y-87386094D01*
X193007474Y-87387345D01*
X193007243Y-87389099D01*
X192999225Y-87401100D01*
X192980789Y-87445612D01*
X192980789Y-87493588D01*
X192999225Y-87538099D01*
X193007244Y-87550100D01*
X193007475Y-87551854D01*
X193006224Y-87553105D01*
X193004470Y-87552874D01*
X192989420Y-87542818D01*
X192965701Y-87538100D01*
X191766099Y-87538100D01*
X191742379Y-87542818D01*
X191727326Y-87552876D01*
X191725572Y-87553107D01*
X191724321Y-87551856D01*
X191724552Y-87550102D01*
X191732574Y-87538097D01*
X191751010Y-87493588D01*
X191751010Y-87445612D01*
X191732574Y-87401102D01*
X191724553Y-87389097D01*
X191724322Y-87387343D01*
X191725573Y-87386092D01*
X191727327Y-87386323D01*
G37*
G36*
X179727327Y-87386323D02*
G01*
X179742379Y-87396381D01*
X179766099Y-87401100D01*
X180965701Y-87401100D01*
X180989420Y-87396381D01*
X181004469Y-87386325D01*
X181006223Y-87386094D01*
X181007474Y-87387345D01*
X181007243Y-87389099D01*
X180999225Y-87401100D01*
X180980789Y-87445612D01*
X180980789Y-87493588D01*
X180999225Y-87538099D01*
X181007244Y-87550100D01*
X181007475Y-87551854D01*
X181006224Y-87553105D01*
X181004470Y-87552874D01*
X180989420Y-87542818D01*
X180965701Y-87538100D01*
X179766099Y-87538100D01*
X179742379Y-87542818D01*
X179727326Y-87552876D01*
X179725572Y-87553107D01*
X179724321Y-87551856D01*
X179724552Y-87550102D01*
X179732574Y-87538097D01*
X179751010Y-87493588D01*
X179751010Y-87445612D01*
X179732574Y-87401102D01*
X179724553Y-87389097D01*
X179724322Y-87387343D01*
X179725573Y-87386092D01*
X179727327Y-87386323D01*
G37*
G36*
X191727327Y-86886323D02*
G01*
X191742379Y-86896381D01*
X191766099Y-86901100D01*
X192965701Y-86901100D01*
X192989420Y-86896381D01*
X193004469Y-86886325D01*
X193006223Y-86886094D01*
X193007474Y-86887345D01*
X193007243Y-86889099D01*
X192999225Y-86901100D01*
X192980789Y-86945612D01*
X192980789Y-86993588D01*
X192999225Y-87038099D01*
X193007244Y-87050100D01*
X193007475Y-87051854D01*
X193006224Y-87053105D01*
X193004470Y-87052874D01*
X192989420Y-87042818D01*
X192965701Y-87038100D01*
X191766099Y-87038100D01*
X191742379Y-87042818D01*
X191727326Y-87052876D01*
X191725572Y-87053107D01*
X191724321Y-87051856D01*
X191724552Y-87050102D01*
X191732574Y-87038097D01*
X191751010Y-86993588D01*
X191751010Y-86945612D01*
X191732574Y-86901102D01*
X191724553Y-86889097D01*
X191724322Y-86887343D01*
X191725573Y-86886092D01*
X191727327Y-86886323D01*
G37*
G36*
X179727327Y-86886323D02*
G01*
X179742379Y-86896381D01*
X179766099Y-86901100D01*
X180965701Y-86901100D01*
X180989420Y-86896381D01*
X181004469Y-86886325D01*
X181006223Y-86886094D01*
X181007474Y-86887345D01*
X181007243Y-86889099D01*
X180999225Y-86901100D01*
X180980789Y-86945612D01*
X180980789Y-86993588D01*
X180999225Y-87038099D01*
X181007244Y-87050100D01*
X181007475Y-87051854D01*
X181006224Y-87053105D01*
X181004470Y-87052874D01*
X180989420Y-87042818D01*
X180965701Y-87038100D01*
X179766099Y-87038100D01*
X179742379Y-87042818D01*
X179727326Y-87052876D01*
X179725572Y-87053107D01*
X179724321Y-87051856D01*
X179724552Y-87050102D01*
X179732574Y-87038097D01*
X179751010Y-86993588D01*
X179751010Y-86945612D01*
X179732574Y-86901102D01*
X179724553Y-86889097D01*
X179724322Y-86887343D01*
X179725573Y-86886092D01*
X179727327Y-86886323D01*
G37*
G36*
X191727327Y-86386324D02*
G01*
X191742379Y-86396381D01*
X191766099Y-86401100D01*
X192965701Y-86401100D01*
X192989420Y-86396381D01*
X193004471Y-86386325D01*
X193006225Y-86386094D01*
X193007476Y-86387345D01*
X193007245Y-86389099D01*
X192999226Y-86401099D01*
X192980789Y-86445610D01*
X192980789Y-86493586D01*
X192999224Y-86538097D01*
X193007244Y-86550100D01*
X193007475Y-86551854D01*
X193006224Y-86553105D01*
X193004470Y-86552874D01*
X192989420Y-86542818D01*
X192965701Y-86538100D01*
X191766099Y-86538100D01*
X191742379Y-86542818D01*
X191727324Y-86552878D01*
X191725570Y-86553109D01*
X191724319Y-86551858D01*
X191724550Y-86550104D01*
X191732574Y-86538095D01*
X191751010Y-86493586D01*
X191751010Y-86445610D01*
X191732573Y-86401100D01*
X191724553Y-86389098D01*
X191724322Y-86387344D01*
X191725573Y-86386093D01*
X191727327Y-86386324D01*
G37*
G36*
X179727327Y-86386324D02*
G01*
X179742379Y-86396381D01*
X179766099Y-86401100D01*
X180965701Y-86401100D01*
X180989420Y-86396381D01*
X181004471Y-86386325D01*
X181006225Y-86386094D01*
X181007476Y-86387345D01*
X181007245Y-86389099D01*
X180999226Y-86401099D01*
X180980789Y-86445610D01*
X180980789Y-86493586D01*
X180999224Y-86538097D01*
X181007244Y-86550100D01*
X181007475Y-86551854D01*
X181006224Y-86553105D01*
X181004470Y-86552874D01*
X180989420Y-86542818D01*
X180965701Y-86538100D01*
X179766099Y-86538100D01*
X179742379Y-86542818D01*
X179727324Y-86552878D01*
X179725570Y-86553109D01*
X179724319Y-86551858D01*
X179724550Y-86550104D01*
X179732574Y-86538095D01*
X179751010Y-86493586D01*
X179751010Y-86445610D01*
X179732573Y-86401100D01*
X179724553Y-86389098D01*
X179724322Y-86387344D01*
X179725573Y-86386093D01*
X179727327Y-86386324D01*
G37*
G36*
X191727327Y-85886323D02*
G01*
X191742379Y-85896381D01*
X191766099Y-85901100D01*
X192965701Y-85901100D01*
X192989420Y-85896381D01*
X193004469Y-85886325D01*
X193006223Y-85886094D01*
X193007474Y-85887345D01*
X193007243Y-85889099D01*
X192999225Y-85901100D01*
X192980789Y-85945612D01*
X192980789Y-85993588D01*
X192999225Y-86038099D01*
X193007244Y-86050100D01*
X193007475Y-86051854D01*
X193006224Y-86053105D01*
X193004470Y-86052874D01*
X192989420Y-86042818D01*
X192965701Y-86038100D01*
X191766099Y-86038100D01*
X191742379Y-86042818D01*
X191727326Y-86052876D01*
X191725572Y-86053107D01*
X191724321Y-86051856D01*
X191724552Y-86050102D01*
X191732574Y-86038097D01*
X191751010Y-85993588D01*
X191751010Y-85945612D01*
X191732574Y-85901102D01*
X191724553Y-85889097D01*
X191724322Y-85887343D01*
X191725573Y-85886092D01*
X191727327Y-85886323D01*
G37*
G36*
X179727327Y-85886323D02*
G01*
X179742379Y-85896381D01*
X179766099Y-85901100D01*
X180965701Y-85901100D01*
X180989420Y-85896381D01*
X181004469Y-85886325D01*
X181006223Y-85886094D01*
X181007474Y-85887345D01*
X181007243Y-85889099D01*
X180999225Y-85901100D01*
X180980789Y-85945612D01*
X180980789Y-85993588D01*
X180999225Y-86038099D01*
X181007244Y-86050100D01*
X181007475Y-86051854D01*
X181006224Y-86053105D01*
X181004470Y-86052874D01*
X180989420Y-86042818D01*
X180965701Y-86038100D01*
X179766099Y-86038100D01*
X179742379Y-86042818D01*
X179727326Y-86052876D01*
X179725572Y-86053107D01*
X179724321Y-86051856D01*
X179724552Y-86050102D01*
X179732574Y-86038097D01*
X179751010Y-85993588D01*
X179751010Y-85945612D01*
X179732574Y-85901102D01*
X179724553Y-85889097D01*
X179724322Y-85887343D01*
X179725573Y-85886092D01*
X179727327Y-85886323D01*
G37*
G36*
X191727327Y-85386324D02*
G01*
X191742379Y-85396381D01*
X191766099Y-85401100D01*
X192965701Y-85401100D01*
X192989420Y-85396381D01*
X193004471Y-85386325D01*
X193006225Y-85386094D01*
X193007476Y-85387345D01*
X193007245Y-85389099D01*
X192999226Y-85401099D01*
X192980789Y-85445610D01*
X192980789Y-85493586D01*
X192999224Y-85538097D01*
X193007244Y-85550100D01*
X193007475Y-85551854D01*
X193006224Y-85553105D01*
X193004470Y-85552874D01*
X192989420Y-85542818D01*
X192965701Y-85538100D01*
X191766099Y-85538100D01*
X191742379Y-85542818D01*
X191727324Y-85552878D01*
X191725570Y-85553109D01*
X191724319Y-85551858D01*
X191724550Y-85550104D01*
X191732574Y-85538095D01*
X191751010Y-85493586D01*
X191751010Y-85445610D01*
X191732573Y-85401100D01*
X191724553Y-85389098D01*
X191724322Y-85387344D01*
X191725573Y-85386093D01*
X191727327Y-85386324D01*
G37*
G36*
X179727327Y-85386324D02*
G01*
X179742379Y-85396381D01*
X179766099Y-85401100D01*
X180965701Y-85401100D01*
X180989420Y-85396381D01*
X181004471Y-85386325D01*
X181006225Y-85386094D01*
X181007476Y-85387345D01*
X181007245Y-85389099D01*
X180999226Y-85401099D01*
X180980789Y-85445610D01*
X180980789Y-85493586D01*
X180999224Y-85538097D01*
X181007244Y-85550100D01*
X181007475Y-85551854D01*
X181006224Y-85553105D01*
X181004470Y-85552874D01*
X180989420Y-85542818D01*
X180965701Y-85538100D01*
X179766099Y-85538100D01*
X179742379Y-85542818D01*
X179727324Y-85552878D01*
X179725570Y-85553109D01*
X179724319Y-85551858D01*
X179724550Y-85550104D01*
X179732574Y-85538095D01*
X179751010Y-85493586D01*
X179751010Y-85445610D01*
X179732573Y-85401100D01*
X179724553Y-85389098D01*
X179724322Y-85387344D01*
X179725573Y-85386093D01*
X179727327Y-85386324D01*
G37*
G36*
X191727327Y-84886323D02*
G01*
X191742379Y-84896381D01*
X191766099Y-84901100D01*
X192965701Y-84901100D01*
X192989420Y-84896381D01*
X193004469Y-84886325D01*
X193006223Y-84886094D01*
X193007474Y-84887345D01*
X193007243Y-84889099D01*
X192999225Y-84901100D01*
X192980789Y-84945612D01*
X192980789Y-84993588D01*
X192999225Y-85038099D01*
X193007244Y-85050100D01*
X193007475Y-85051854D01*
X193006224Y-85053105D01*
X193004470Y-85052874D01*
X192989420Y-85042818D01*
X192965701Y-85038100D01*
X191766099Y-85038100D01*
X191742379Y-85042818D01*
X191727326Y-85052876D01*
X191725572Y-85053107D01*
X191724321Y-85051856D01*
X191724552Y-85050102D01*
X191732574Y-85038097D01*
X191751010Y-84993588D01*
X191751010Y-84945612D01*
X191732574Y-84901102D01*
X191724553Y-84889097D01*
X191724322Y-84887343D01*
X191725573Y-84886092D01*
X191727327Y-84886323D01*
G37*
G36*
X179727327Y-84886323D02*
G01*
X179742379Y-84896381D01*
X179766099Y-84901100D01*
X180965701Y-84901100D01*
X180989420Y-84896381D01*
X181004469Y-84886325D01*
X181006223Y-84886094D01*
X181007474Y-84887345D01*
X181007243Y-84889099D01*
X180999225Y-84901100D01*
X180980789Y-84945612D01*
X180980789Y-84993588D01*
X180999225Y-85038099D01*
X181007244Y-85050100D01*
X181007475Y-85051854D01*
X181006224Y-85053105D01*
X181004470Y-85052874D01*
X180989420Y-85042818D01*
X180965701Y-85038100D01*
X179766099Y-85038100D01*
X179742379Y-85042818D01*
X179727326Y-85052876D01*
X179725572Y-85053107D01*
X179724321Y-85051856D01*
X179724552Y-85050102D01*
X179732574Y-85038097D01*
X179751010Y-84993588D01*
X179751010Y-84945612D01*
X179732574Y-84901102D01*
X179724553Y-84889097D01*
X179724322Y-84887343D01*
X179725573Y-84886092D01*
X179727327Y-84886323D01*
G37*
G36*
X191727327Y-84386324D02*
G01*
X191742379Y-84396381D01*
X191766099Y-84401100D01*
X192965701Y-84401100D01*
X192989420Y-84396381D01*
X193004471Y-84386325D01*
X193006225Y-84386094D01*
X193007476Y-84387345D01*
X193007245Y-84389099D01*
X192999226Y-84401099D01*
X192980789Y-84445610D01*
X192980789Y-84493586D01*
X192999224Y-84538097D01*
X193007244Y-84550100D01*
X193007475Y-84551854D01*
X193006224Y-84553105D01*
X193004470Y-84552874D01*
X192989420Y-84542818D01*
X192965701Y-84538100D01*
X191766099Y-84538100D01*
X191742379Y-84542818D01*
X191727324Y-84552878D01*
X191725570Y-84553109D01*
X191724319Y-84551858D01*
X191724550Y-84550104D01*
X191732574Y-84538095D01*
X191751010Y-84493586D01*
X191751010Y-84445610D01*
X191732573Y-84401100D01*
X191724553Y-84389098D01*
X191724322Y-84387344D01*
X191725573Y-84386093D01*
X191727327Y-84386324D01*
G37*
G36*
X179727327Y-84386324D02*
G01*
X179742379Y-84396381D01*
X179766099Y-84401100D01*
X180965701Y-84401100D01*
X180989420Y-84396381D01*
X181004471Y-84386325D01*
X181006225Y-84386094D01*
X181007476Y-84387345D01*
X181007245Y-84389099D01*
X180999226Y-84401099D01*
X180980789Y-84445610D01*
X180980789Y-84493586D01*
X180999224Y-84538097D01*
X181007244Y-84550100D01*
X181007475Y-84551854D01*
X181006224Y-84553105D01*
X181004470Y-84552874D01*
X180989420Y-84542818D01*
X180965701Y-84538100D01*
X179766099Y-84538100D01*
X179742379Y-84542818D01*
X179727324Y-84552878D01*
X179725570Y-84553109D01*
X179724319Y-84551858D01*
X179724550Y-84550104D01*
X179732574Y-84538095D01*
X179751010Y-84493586D01*
X179751010Y-84445610D01*
X179732573Y-84401100D01*
X179724553Y-84389098D01*
X179724322Y-84387344D01*
X179725573Y-84386093D01*
X179727327Y-84386324D01*
G37*
G36*
X191727327Y-83886323D02*
G01*
X191742379Y-83896381D01*
X191766099Y-83901100D01*
X192965701Y-83901100D01*
X192989420Y-83896381D01*
X193004469Y-83886325D01*
X193006223Y-83886094D01*
X193007474Y-83887345D01*
X193007243Y-83889099D01*
X192999225Y-83901100D01*
X192980789Y-83945612D01*
X192980789Y-83993588D01*
X192999225Y-84038099D01*
X193007244Y-84050100D01*
X193007475Y-84051854D01*
X193006224Y-84053105D01*
X193004470Y-84052874D01*
X192989420Y-84042818D01*
X192965701Y-84038100D01*
X191766099Y-84038100D01*
X191742379Y-84042818D01*
X191727326Y-84052876D01*
X191725572Y-84053107D01*
X191724321Y-84051856D01*
X191724552Y-84050102D01*
X191732574Y-84038097D01*
X191751010Y-83993588D01*
X191751010Y-83945612D01*
X191732574Y-83901102D01*
X191724553Y-83889097D01*
X191724322Y-83887343D01*
X191725573Y-83886092D01*
X191727327Y-83886323D01*
G37*
G36*
X179727327Y-83886323D02*
G01*
X179742379Y-83896381D01*
X179766099Y-83901100D01*
X180965701Y-83901100D01*
X180989420Y-83896381D01*
X181004469Y-83886325D01*
X181006223Y-83886094D01*
X181007474Y-83887345D01*
X181007243Y-83889099D01*
X180999225Y-83901100D01*
X180980789Y-83945612D01*
X180980789Y-83993588D01*
X180999225Y-84038099D01*
X181007244Y-84050100D01*
X181007475Y-84051854D01*
X181006224Y-84053105D01*
X181004470Y-84052874D01*
X180989420Y-84042818D01*
X180965701Y-84038100D01*
X179766099Y-84038100D01*
X179742379Y-84042818D01*
X179727326Y-84052876D01*
X179725572Y-84053107D01*
X179724321Y-84051856D01*
X179724552Y-84050102D01*
X179732574Y-84038097D01*
X179751010Y-83993588D01*
X179751010Y-83945612D01*
X179732574Y-83901102D01*
X179724553Y-83889097D01*
X179724322Y-83887343D01*
X179725573Y-83886092D01*
X179727327Y-83886323D01*
G37*
G36*
X191727327Y-83386323D02*
G01*
X191742379Y-83396381D01*
X191766099Y-83401100D01*
X192965701Y-83401100D01*
X192989420Y-83396381D01*
X193004469Y-83386325D01*
X193006223Y-83386094D01*
X193007474Y-83387345D01*
X193007243Y-83389099D01*
X192999225Y-83401100D01*
X192980789Y-83445612D01*
X192980789Y-83493588D01*
X192999225Y-83538099D01*
X193007244Y-83550100D01*
X193007475Y-83551854D01*
X193006224Y-83553105D01*
X193004470Y-83552874D01*
X192989420Y-83542818D01*
X192965701Y-83538100D01*
X191766099Y-83538100D01*
X191742379Y-83542818D01*
X191727326Y-83552876D01*
X191725572Y-83553107D01*
X191724321Y-83551856D01*
X191724552Y-83550102D01*
X191732574Y-83538097D01*
X191751010Y-83493588D01*
X191751010Y-83445612D01*
X191732574Y-83401102D01*
X191724553Y-83389097D01*
X191724322Y-83387343D01*
X191725573Y-83386092D01*
X191727327Y-83386323D01*
G37*
G36*
X179727327Y-83386323D02*
G01*
X179742379Y-83396381D01*
X179766099Y-83401100D01*
X180965701Y-83401100D01*
X180989420Y-83396381D01*
X181004469Y-83386325D01*
X181006223Y-83386094D01*
X181007474Y-83387345D01*
X181007243Y-83389099D01*
X180999225Y-83401100D01*
X180980789Y-83445612D01*
X180980789Y-83493588D01*
X180999225Y-83538099D01*
X181007244Y-83550100D01*
X181007475Y-83551854D01*
X181006224Y-83553105D01*
X181004470Y-83552874D01*
X180989420Y-83542818D01*
X180965701Y-83538100D01*
X179766099Y-83538100D01*
X179742379Y-83542818D01*
X179727326Y-83552876D01*
X179725572Y-83553107D01*
X179724321Y-83551856D01*
X179724552Y-83550102D01*
X179732574Y-83538097D01*
X179751010Y-83493588D01*
X179751010Y-83445612D01*
X179732574Y-83401102D01*
X179724553Y-83389097D01*
X179724322Y-83387343D01*
X179725573Y-83386092D01*
X179727327Y-83386323D01*
G37*
G36*
X154195061Y-83242994D02*
G01*
X154195675Y-83243913D01*
X154211233Y-83254309D01*
X154229787Y-83258000D01*
X154907155Y-83258000D01*
X154908796Y-83258857D01*
X154909031Y-83260694D01*
X154907657Y-83261936D01*
X154847416Y-83277558D01*
X154802730Y-83320134D01*
X154784369Y-83379057D01*
X154796958Y-83439480D01*
X154837497Y-83486369D01*
X154890270Y-83522796D01*
X154891130Y-83524565D01*
X154890060Y-83526215D01*
X154888095Y-83526151D01*
X154807905Y-83477386D01*
X154664135Y-83437103D01*
X154589525Y-83432000D01*
X154086640Y-83432000D01*
X154085005Y-83431152D01*
X154084757Y-83429326D01*
X154086107Y-83428072D01*
X154149836Y-83410435D01*
X154195049Y-83362947D01*
X154209415Y-83298970D01*
X154191499Y-83244732D01*
X154191792Y-83242914D01*
X154193447Y-83242106D01*
X154195061Y-83242994D01*
G37*
G36*
X154197651Y-82445233D02*
G01*
X154211233Y-82454309D01*
X154229787Y-82458000D01*
X155679389Y-82458000D01*
X155697942Y-82454309D01*
X155711524Y-82445234D01*
X155713153Y-82444965D01*
X155714429Y-82446012D01*
X155714483Y-82447662D01*
X155698598Y-82486009D01*
X155698598Y-82533986D01*
X155714483Y-82572338D01*
X155714429Y-82573988D01*
X155713153Y-82575035D01*
X155711524Y-82574766D01*
X155697942Y-82565690D01*
X155679389Y-82562000D01*
X154229787Y-82562000D01*
X154211233Y-82565690D01*
X154197651Y-82574766D01*
X154196022Y-82575035D01*
X154194746Y-82573988D01*
X154194692Y-82572338D01*
X154210577Y-82533988D01*
X154210577Y-82486012D01*
X154194692Y-82447661D01*
X154194746Y-82446011D01*
X154196022Y-82444964D01*
X154197651Y-82445233D01*
G37*
G36*
X154200561Y-81597178D02*
G01*
X154211233Y-81604309D01*
X154229787Y-81608000D01*
X155679389Y-81608000D01*
X155697942Y-81604309D01*
X155708612Y-81597179D01*
X155710366Y-81596948D01*
X155711617Y-81598199D01*
X155711386Y-81599953D01*
X155702136Y-81613797D01*
X155702931Y-81615086D01*
X155702428Y-81616674D01*
X155693033Y-81627038D01*
X155678511Y-81685000D01*
X155693033Y-81742961D01*
X155702428Y-81753325D01*
X155702931Y-81754912D01*
X155702137Y-81756202D01*
X155711387Y-81770047D01*
X155711618Y-81771801D01*
X155710367Y-81773052D01*
X155708613Y-81772821D01*
X155697942Y-81765690D01*
X155679389Y-81762000D01*
X154229787Y-81762000D01*
X154211233Y-81765690D01*
X154200562Y-81772821D01*
X154198808Y-81773052D01*
X154197557Y-81771801D01*
X154197788Y-81770047D01*
X154207038Y-81756202D01*
X154206243Y-81754912D01*
X154206746Y-81753324D01*
X154216148Y-81742949D01*
X154230663Y-81685000D01*
X154216148Y-81627050D01*
X154206746Y-81616675D01*
X154206243Y-81615087D01*
X154207038Y-81613796D01*
X154197787Y-81599952D01*
X154197556Y-81598198D01*
X154198807Y-81596947D01*
X154200561Y-81597178D01*
G37*
G36*
X189949407Y-80329272D02*
G01*
X189949176Y-80331026D01*
X189939118Y-80346079D01*
X189934400Y-80369799D01*
X189934400Y-81569401D01*
X189939118Y-81593120D01*
X189949174Y-81608170D01*
X189949405Y-81609924D01*
X189948154Y-81611175D01*
X189946400Y-81610944D01*
X189934399Y-81602925D01*
X189889888Y-81584489D01*
X189841912Y-81584489D01*
X189797400Y-81602925D01*
X189785399Y-81610943D01*
X189783645Y-81611174D01*
X189782394Y-81609923D01*
X189782625Y-81608169D01*
X189792681Y-81593120D01*
X189797400Y-81569401D01*
X189797400Y-80369799D01*
X189792681Y-80346079D01*
X189782623Y-80331027D01*
X189782392Y-80329273D01*
X189783643Y-80328022D01*
X189785397Y-80328253D01*
X189797402Y-80336274D01*
X189841912Y-80354710D01*
X189889888Y-80354710D01*
X189934397Y-80336274D01*
X189946402Y-80328252D01*
X189948156Y-80328021D01*
X189949407Y-80329272D01*
G37*
G36*
X189449407Y-80329272D02*
G01*
X189449176Y-80331026D01*
X189439118Y-80346079D01*
X189434400Y-80369799D01*
X189434400Y-81569401D01*
X189439118Y-81593120D01*
X189449174Y-81608170D01*
X189449405Y-81609924D01*
X189448154Y-81611175D01*
X189446400Y-81610944D01*
X189434399Y-81602925D01*
X189389888Y-81584489D01*
X189341912Y-81584489D01*
X189297400Y-81602925D01*
X189285399Y-81610943D01*
X189283645Y-81611174D01*
X189282394Y-81609923D01*
X189282625Y-81608169D01*
X189292681Y-81593120D01*
X189297400Y-81569401D01*
X189297400Y-80369799D01*
X189292681Y-80346079D01*
X189282623Y-80331027D01*
X189282392Y-80329273D01*
X189283643Y-80328022D01*
X189285397Y-80328253D01*
X189297402Y-80336274D01*
X189341912Y-80354710D01*
X189389888Y-80354710D01*
X189434397Y-80336274D01*
X189446402Y-80328252D01*
X189448156Y-80328021D01*
X189449407Y-80329272D01*
G37*
G36*
X188949407Y-80329272D02*
G01*
X188949176Y-80331026D01*
X188939118Y-80346079D01*
X188934400Y-80369799D01*
X188934400Y-81569401D01*
X188939118Y-81593120D01*
X188949174Y-81608170D01*
X188949405Y-81609924D01*
X188948154Y-81611175D01*
X188946400Y-81610944D01*
X188934399Y-81602925D01*
X188889888Y-81584489D01*
X188841912Y-81584489D01*
X188797400Y-81602925D01*
X188785399Y-81610943D01*
X188783645Y-81611174D01*
X188782394Y-81609923D01*
X188782625Y-81608169D01*
X188792681Y-81593120D01*
X188797400Y-81569401D01*
X188797400Y-80369799D01*
X188792681Y-80346079D01*
X188782623Y-80331027D01*
X188782392Y-80329273D01*
X188783643Y-80328022D01*
X188785397Y-80328253D01*
X188797402Y-80336274D01*
X188841912Y-80354710D01*
X188889888Y-80354710D01*
X188934397Y-80336274D01*
X188946402Y-80328252D01*
X188948156Y-80328021D01*
X188949407Y-80329272D01*
G37*
G36*
X188449407Y-80329272D02*
G01*
X188449176Y-80331026D01*
X188439118Y-80346079D01*
X188434400Y-80369799D01*
X188434400Y-81569401D01*
X188439118Y-81593120D01*
X188449174Y-81608170D01*
X188449405Y-81609924D01*
X188448154Y-81611175D01*
X188446400Y-81610944D01*
X188434399Y-81602925D01*
X188389888Y-81584489D01*
X188341912Y-81584489D01*
X188297400Y-81602925D01*
X188285399Y-81610943D01*
X188283645Y-81611174D01*
X188282394Y-81609923D01*
X188282625Y-81608169D01*
X188292681Y-81593120D01*
X188297400Y-81569401D01*
X188297400Y-80369799D01*
X188292681Y-80346079D01*
X188282623Y-80331027D01*
X188282392Y-80329273D01*
X188283643Y-80328022D01*
X188285397Y-80328253D01*
X188297402Y-80336274D01*
X188341912Y-80354710D01*
X188389888Y-80354710D01*
X188434397Y-80336274D01*
X188446402Y-80328252D01*
X188448156Y-80328021D01*
X188449407Y-80329272D01*
G37*
G36*
X187949407Y-80329272D02*
G01*
X187949176Y-80331026D01*
X187939118Y-80346079D01*
X187934400Y-80369799D01*
X187934400Y-81569401D01*
X187939118Y-81593120D01*
X187949174Y-81608170D01*
X187949405Y-81609924D01*
X187948154Y-81611175D01*
X187946400Y-81610944D01*
X187934399Y-81602925D01*
X187889888Y-81584489D01*
X187841912Y-81584489D01*
X187797400Y-81602925D01*
X187785399Y-81610943D01*
X187783645Y-81611174D01*
X187782394Y-81609923D01*
X187782625Y-81608169D01*
X187792681Y-81593120D01*
X187797400Y-81569401D01*
X187797400Y-80369799D01*
X187792681Y-80346079D01*
X187782623Y-80331027D01*
X187782392Y-80329273D01*
X187783643Y-80328022D01*
X187785397Y-80328253D01*
X187797402Y-80336274D01*
X187841912Y-80354710D01*
X187889888Y-80354710D01*
X187934397Y-80336274D01*
X187946402Y-80328252D01*
X187948156Y-80328021D01*
X187949407Y-80329272D01*
G37*
G36*
X187449407Y-80329272D02*
G01*
X187449176Y-80331026D01*
X187439118Y-80346079D01*
X187434400Y-80369799D01*
X187434400Y-81569401D01*
X187439118Y-81593120D01*
X187449174Y-81608170D01*
X187449405Y-81609924D01*
X187448154Y-81611175D01*
X187446400Y-81610944D01*
X187434399Y-81602925D01*
X187389888Y-81584489D01*
X187341912Y-81584489D01*
X187297400Y-81602925D01*
X187285399Y-81610943D01*
X187283645Y-81611174D01*
X187282394Y-81609923D01*
X187282625Y-81608169D01*
X187292681Y-81593120D01*
X187297400Y-81569401D01*
X187297400Y-80369799D01*
X187292681Y-80346079D01*
X187282623Y-80331027D01*
X187282392Y-80329273D01*
X187283643Y-80328022D01*
X187285397Y-80328253D01*
X187297402Y-80336274D01*
X187341912Y-80354710D01*
X187389888Y-80354710D01*
X187434397Y-80336274D01*
X187446402Y-80328252D01*
X187448156Y-80328021D01*
X187449407Y-80329272D01*
G37*
G36*
X186949407Y-80329272D02*
G01*
X186949176Y-80331026D01*
X186939118Y-80346079D01*
X186934400Y-80369799D01*
X186934400Y-81569401D01*
X186939118Y-81593120D01*
X186949174Y-81608170D01*
X186949405Y-81609924D01*
X186948154Y-81611175D01*
X186946400Y-81610944D01*
X186934399Y-81602925D01*
X186889888Y-81584489D01*
X186841912Y-81584489D01*
X186797400Y-81602925D01*
X186785399Y-81610943D01*
X186783645Y-81611174D01*
X186782394Y-81609923D01*
X186782625Y-81608169D01*
X186792681Y-81593120D01*
X186797400Y-81569401D01*
X186797400Y-80369799D01*
X186792681Y-80346079D01*
X186782623Y-80331027D01*
X186782392Y-80329273D01*
X186783643Y-80328022D01*
X186785397Y-80328253D01*
X186797402Y-80336274D01*
X186841912Y-80354710D01*
X186889888Y-80354710D01*
X186934397Y-80336274D01*
X186946402Y-80328252D01*
X186948156Y-80328021D01*
X186949407Y-80329272D01*
G37*
G36*
X186449407Y-80329272D02*
G01*
X186449176Y-80331026D01*
X186439118Y-80346079D01*
X186434400Y-80369799D01*
X186434400Y-81569401D01*
X186439118Y-81593120D01*
X186449174Y-81608170D01*
X186449405Y-81609924D01*
X186448154Y-81611175D01*
X186446400Y-81610944D01*
X186434399Y-81602925D01*
X186389888Y-81584489D01*
X186341912Y-81584489D01*
X186297400Y-81602925D01*
X186285399Y-81610943D01*
X186283645Y-81611174D01*
X186282394Y-81609923D01*
X186282625Y-81608169D01*
X186292681Y-81593120D01*
X186297400Y-81569401D01*
X186297400Y-80369799D01*
X186292681Y-80346079D01*
X186282623Y-80331027D01*
X186282392Y-80329273D01*
X186283643Y-80328022D01*
X186285397Y-80328253D01*
X186297402Y-80336274D01*
X186341912Y-80354710D01*
X186389888Y-80354710D01*
X186434397Y-80336274D01*
X186446402Y-80328252D01*
X186448156Y-80328021D01*
X186449407Y-80329272D01*
G37*
G36*
X185949407Y-80329272D02*
G01*
X185949176Y-80331026D01*
X185939118Y-80346079D01*
X185934400Y-80369799D01*
X185934400Y-81569401D01*
X185939118Y-81593120D01*
X185949174Y-81608170D01*
X185949405Y-81609924D01*
X185948154Y-81611175D01*
X185946400Y-81610944D01*
X185934399Y-81602925D01*
X185889888Y-81584489D01*
X185841912Y-81584489D01*
X185797400Y-81602925D01*
X185785399Y-81610943D01*
X185783645Y-81611174D01*
X185782394Y-81609923D01*
X185782625Y-81608169D01*
X185792681Y-81593120D01*
X185797400Y-81569401D01*
X185797400Y-80369799D01*
X185792681Y-80346079D01*
X185782623Y-80331027D01*
X185782392Y-80329273D01*
X185783643Y-80328022D01*
X185785397Y-80328253D01*
X185797402Y-80336274D01*
X185841912Y-80354710D01*
X185889888Y-80354710D01*
X185934397Y-80336274D01*
X185946402Y-80328252D01*
X185948156Y-80328021D01*
X185949407Y-80329272D01*
G37*
G36*
X185449407Y-80329272D02*
G01*
X185449176Y-80331026D01*
X185439118Y-80346079D01*
X185434400Y-80369799D01*
X185434400Y-81569401D01*
X185439118Y-81593120D01*
X185449174Y-81608170D01*
X185449405Y-81609924D01*
X185448154Y-81611175D01*
X185446400Y-81610944D01*
X185434399Y-81602925D01*
X185389888Y-81584489D01*
X185341912Y-81584489D01*
X185297400Y-81602925D01*
X185285399Y-81610943D01*
X185283645Y-81611174D01*
X185282394Y-81609923D01*
X185282625Y-81608169D01*
X185292681Y-81593120D01*
X185297400Y-81569401D01*
X185297400Y-80369799D01*
X185292681Y-80346079D01*
X185282623Y-80331027D01*
X185282392Y-80329273D01*
X185283643Y-80328022D01*
X185285397Y-80328253D01*
X185297402Y-80336274D01*
X185341912Y-80354710D01*
X185389888Y-80354710D01*
X185434397Y-80336274D01*
X185446402Y-80328252D01*
X185448156Y-80328021D01*
X185449407Y-80329272D01*
G37*
G36*
X184949407Y-80329272D02*
G01*
X184949176Y-80331026D01*
X184939118Y-80346079D01*
X184934400Y-80369799D01*
X184934400Y-81569401D01*
X184939118Y-81593120D01*
X184949174Y-81608170D01*
X184949405Y-81609924D01*
X184948154Y-81611175D01*
X184946400Y-81610944D01*
X184934399Y-81602925D01*
X184889888Y-81584489D01*
X184841912Y-81584489D01*
X184797400Y-81602925D01*
X184785399Y-81610943D01*
X184783645Y-81611174D01*
X184782394Y-81609923D01*
X184782625Y-81608169D01*
X184792681Y-81593120D01*
X184797400Y-81569401D01*
X184797400Y-80369799D01*
X184792681Y-80346079D01*
X184782623Y-80331027D01*
X184782392Y-80329273D01*
X184783643Y-80328022D01*
X184785397Y-80328253D01*
X184797402Y-80336274D01*
X184841912Y-80354710D01*
X184889888Y-80354710D01*
X184934397Y-80336274D01*
X184946402Y-80328252D01*
X184948156Y-80328021D01*
X184949407Y-80329272D01*
G37*
G36*
X184449407Y-80329272D02*
G01*
X184449176Y-80331026D01*
X184439118Y-80346079D01*
X184434400Y-80369799D01*
X184434400Y-81569401D01*
X184439118Y-81593120D01*
X184449174Y-81608170D01*
X184449405Y-81609924D01*
X184448154Y-81611175D01*
X184446400Y-81610944D01*
X184434399Y-81602925D01*
X184389888Y-81584489D01*
X184341912Y-81584489D01*
X184297400Y-81602925D01*
X184285399Y-81610943D01*
X184283645Y-81611174D01*
X184282394Y-81609923D01*
X184282625Y-81608169D01*
X184292681Y-81593120D01*
X184297400Y-81569401D01*
X184297400Y-80369799D01*
X184292681Y-80346079D01*
X184282623Y-80331027D01*
X184282392Y-80329273D01*
X184283643Y-80328022D01*
X184285397Y-80328253D01*
X184297402Y-80336274D01*
X184341912Y-80354710D01*
X184389888Y-80354710D01*
X184434397Y-80336274D01*
X184446402Y-80328252D01*
X184448156Y-80328021D01*
X184449407Y-80329272D01*
G37*
G36*
X183949407Y-80329272D02*
G01*
X183949176Y-80331026D01*
X183939118Y-80346079D01*
X183934400Y-80369799D01*
X183934400Y-81569401D01*
X183939118Y-81593120D01*
X183949174Y-81608170D01*
X183949405Y-81609924D01*
X183948154Y-81611175D01*
X183946400Y-81610944D01*
X183934399Y-81602925D01*
X183889888Y-81584489D01*
X183841912Y-81584489D01*
X183797400Y-81602925D01*
X183785399Y-81610943D01*
X183783645Y-81611174D01*
X183782394Y-81609923D01*
X183782625Y-81608169D01*
X183792681Y-81593120D01*
X183797400Y-81569401D01*
X183797400Y-80369799D01*
X183792681Y-80346079D01*
X183782623Y-80331027D01*
X183782392Y-80329273D01*
X183783643Y-80328022D01*
X183785397Y-80328253D01*
X183797402Y-80336274D01*
X183841912Y-80354710D01*
X183889888Y-80354710D01*
X183934397Y-80336274D01*
X183946402Y-80328252D01*
X183948156Y-80328021D01*
X183949407Y-80329272D01*
G37*
G36*
X183449407Y-80329272D02*
G01*
X183449176Y-80331026D01*
X183439118Y-80346079D01*
X183434400Y-80369799D01*
X183434400Y-81569401D01*
X183439118Y-81593120D01*
X183449174Y-81608170D01*
X183449405Y-81609924D01*
X183448154Y-81611175D01*
X183446400Y-81610944D01*
X183434399Y-81602925D01*
X183389888Y-81584489D01*
X183341912Y-81584489D01*
X183297400Y-81602925D01*
X183285399Y-81610943D01*
X183283645Y-81611174D01*
X183282394Y-81609923D01*
X183282625Y-81608169D01*
X183292681Y-81593120D01*
X183297400Y-81569401D01*
X183297400Y-80369799D01*
X183292681Y-80346079D01*
X183282623Y-80331027D01*
X183282392Y-80329273D01*
X183283643Y-80328022D01*
X183285397Y-80328253D01*
X183297402Y-80336274D01*
X183341912Y-80354710D01*
X183389888Y-80354710D01*
X183434397Y-80336274D01*
X183446402Y-80328252D01*
X183448156Y-80328021D01*
X183449407Y-80329272D01*
G37*
G36*
X182949407Y-80329272D02*
G01*
X182949176Y-80331026D01*
X182939118Y-80346079D01*
X182934400Y-80369799D01*
X182934400Y-81569401D01*
X182939118Y-81593120D01*
X182949174Y-81608170D01*
X182949405Y-81609924D01*
X182948154Y-81611175D01*
X182946400Y-81610944D01*
X182934399Y-81602925D01*
X182889888Y-81584489D01*
X182841912Y-81584489D01*
X182797400Y-81602925D01*
X182785399Y-81610943D01*
X182783645Y-81611174D01*
X182782394Y-81609923D01*
X182782625Y-81608169D01*
X182792681Y-81593120D01*
X182797400Y-81569401D01*
X182797400Y-80369799D01*
X182792681Y-80346079D01*
X182782623Y-80331027D01*
X182782392Y-80329273D01*
X182783643Y-80328022D01*
X182785397Y-80328253D01*
X182797402Y-80336274D01*
X182841912Y-80354710D01*
X182889888Y-80354710D01*
X182934397Y-80336274D01*
X182946402Y-80328252D01*
X182948156Y-80328021D01*
X182949407Y-80329272D01*
G37*
G36*
X167466507Y-80477672D02*
G01*
X167466276Y-80479426D01*
X167456218Y-80494479D01*
X167451500Y-80518199D01*
X167451500Y-81279801D01*
X167456218Y-81303520D01*
X167466275Y-81318572D01*
X167466506Y-81320326D01*
X167465255Y-81321577D01*
X167463501Y-81321346D01*
X167454498Y-81315330D01*
X167409988Y-81296894D01*
X167362012Y-81296894D01*
X167317501Y-81315330D01*
X167308498Y-81321346D01*
X167306744Y-81321577D01*
X167305493Y-81320326D01*
X167305724Y-81318572D01*
X167315781Y-81303520D01*
X167320500Y-81279801D01*
X167320500Y-80518199D01*
X167315781Y-80494479D01*
X167305723Y-80479426D01*
X167305492Y-80477672D01*
X167306743Y-80476421D01*
X167308497Y-80476652D01*
X167317502Y-80482669D01*
X167362013Y-80501105D01*
X167409987Y-80501105D01*
X167454497Y-80482669D01*
X167463502Y-80476652D01*
X167465256Y-80476421D01*
X167466507Y-80477672D01*
G37*
G36*
X168280942Y-80495010D02*
G01*
X168281298Y-80496591D01*
X168277000Y-80518199D01*
X168277000Y-81279801D01*
X168281298Y-81301407D01*
X168280942Y-81302988D01*
X168279532Y-81303787D01*
X168277993Y-81303279D01*
X168237703Y-81266762D01*
X168179750Y-81252245D01*
X168121796Y-81266762D01*
X168081506Y-81303279D01*
X168079967Y-81303787D01*
X168078557Y-81302988D01*
X168078201Y-81301407D01*
X168082500Y-81279801D01*
X168082500Y-80518199D01*
X168078201Y-80496591D01*
X168078557Y-80495010D01*
X168079967Y-80494211D01*
X168081506Y-80494719D01*
X168121797Y-80531236D01*
X168179750Y-80545753D01*
X168237702Y-80531236D01*
X168277993Y-80494719D01*
X168279532Y-80494211D01*
X168280942Y-80495010D01*
G37*
G36*
X166693442Y-80495010D02*
G01*
X166693798Y-80496591D01*
X166689500Y-80518199D01*
X166689500Y-81279801D01*
X166693798Y-81301407D01*
X166693442Y-81302988D01*
X166692032Y-81303787D01*
X166690493Y-81303279D01*
X166650203Y-81266762D01*
X166592250Y-81252245D01*
X166534296Y-81266762D01*
X166494006Y-81303279D01*
X166492467Y-81303787D01*
X166491057Y-81302988D01*
X166490701Y-81301407D01*
X166495000Y-81279801D01*
X166495000Y-80518199D01*
X166490701Y-80496591D01*
X166491057Y-80495010D01*
X166492467Y-80494211D01*
X166494006Y-80494719D01*
X166534297Y-80531236D01*
X166592250Y-80545753D01*
X166650202Y-80531236D01*
X166690493Y-80494719D01*
X166692032Y-80494211D01*
X166693442Y-80495010D01*
G37*
G36*
X155714429Y-81096012D02*
G01*
X155714483Y-81097662D01*
X155698598Y-81136009D01*
X155698598Y-81183986D01*
X155714483Y-81222338D01*
X155714429Y-81223988D01*
X155713153Y-81225035D01*
X155711524Y-81224766D01*
X155697942Y-81215690D01*
X155679389Y-81212000D01*
X154229787Y-81212000D01*
X154211233Y-81215690D01*
X154197651Y-81224766D01*
X154196022Y-81225035D01*
X154194746Y-81223988D01*
X154194692Y-81222338D01*
X154210577Y-81183984D01*
X154210577Y-81136010D01*
X154194692Y-81097662D01*
X154194746Y-81096012D01*
X154196022Y-81094965D01*
X154197651Y-81095234D01*
X154211233Y-81104309D01*
X154229787Y-81108000D01*
X155679389Y-81108000D01*
X155697942Y-81104309D01*
X155711524Y-81095234D01*
X155713153Y-81094965D01*
X155714429Y-81096012D01*
G37*
G36*
X154197651Y-80595233D02*
G01*
X154211233Y-80604309D01*
X154229787Y-80608000D01*
X155679389Y-80608000D01*
X155697942Y-80604309D01*
X155711524Y-80595234D01*
X155713153Y-80594965D01*
X155714429Y-80596012D01*
X155714483Y-80597662D01*
X155698598Y-80636012D01*
X155698598Y-80683988D01*
X155714483Y-80722337D01*
X155714429Y-80723987D01*
X155713153Y-80725034D01*
X155711524Y-80724765D01*
X155697942Y-80715690D01*
X155679389Y-80712000D01*
X154229787Y-80712000D01*
X154211233Y-80715690D01*
X154197651Y-80724766D01*
X154196022Y-80725035D01*
X154194746Y-80723988D01*
X154194692Y-80722338D01*
X154210577Y-80683988D01*
X154210577Y-80636012D01*
X154194692Y-80597661D01*
X154194746Y-80596011D01*
X154196022Y-80594964D01*
X154197651Y-80595233D01*
G37*
G36*
X154197651Y-80095233D02*
G01*
X154211233Y-80104309D01*
X154229787Y-80108000D01*
X155679389Y-80108000D01*
X155697942Y-80104309D01*
X155711524Y-80095234D01*
X155713153Y-80094965D01*
X155714429Y-80096012D01*
X155714483Y-80097662D01*
X155698598Y-80136009D01*
X155698598Y-80183986D01*
X155714483Y-80222338D01*
X155714429Y-80223988D01*
X155713153Y-80225035D01*
X155711524Y-80224766D01*
X155697942Y-80215690D01*
X155679389Y-80212000D01*
X154229787Y-80212000D01*
X154211233Y-80215690D01*
X154197651Y-80224766D01*
X154196022Y-80225035D01*
X154194746Y-80223988D01*
X154194692Y-80222338D01*
X154210577Y-80183988D01*
X154210577Y-80136012D01*
X154194692Y-80097661D01*
X154194746Y-80096011D01*
X154196022Y-80094964D01*
X154197651Y-80095233D01*
G37*
G36*
X167466507Y-78953672D02*
G01*
X167466276Y-78955426D01*
X167456218Y-78970479D01*
X167451500Y-78994199D01*
X167451500Y-79755801D01*
X167456218Y-79779520D01*
X167466275Y-79794572D01*
X167466506Y-79796326D01*
X167465255Y-79797577D01*
X167463501Y-79797346D01*
X167454498Y-79791330D01*
X167409988Y-79772894D01*
X167362012Y-79772894D01*
X167317501Y-79791330D01*
X167308498Y-79797346D01*
X167306744Y-79797577D01*
X167305493Y-79796326D01*
X167305724Y-79794572D01*
X167315781Y-79779520D01*
X167320500Y-79755801D01*
X167320500Y-78994199D01*
X167315781Y-78970479D01*
X167305723Y-78955426D01*
X167305492Y-78953672D01*
X167306743Y-78952421D01*
X167308497Y-78952652D01*
X167317502Y-78958669D01*
X167362013Y-78977105D01*
X167409987Y-78977105D01*
X167454497Y-78958669D01*
X167463502Y-78952652D01*
X167465256Y-78952421D01*
X167466507Y-78953672D01*
G37*
G36*
X168280942Y-78971010D02*
G01*
X168281298Y-78972591D01*
X168277000Y-78994199D01*
X168277000Y-79755801D01*
X168281298Y-79777407D01*
X168280942Y-79778988D01*
X168279532Y-79779787D01*
X168277993Y-79779279D01*
X168237703Y-79742762D01*
X168179750Y-79728245D01*
X168121796Y-79742762D01*
X168081506Y-79779279D01*
X168079967Y-79779787D01*
X168078557Y-79778988D01*
X168078201Y-79777407D01*
X168082500Y-79755801D01*
X168082500Y-78994199D01*
X168078201Y-78972591D01*
X168078557Y-78971010D01*
X168079967Y-78970211D01*
X168081506Y-78970719D01*
X168121797Y-79007236D01*
X168179750Y-79021753D01*
X168237702Y-79007236D01*
X168277993Y-78970719D01*
X168279532Y-78970211D01*
X168280942Y-78971010D01*
G37*
G36*
X166693442Y-78971010D02*
G01*
X166693798Y-78972591D01*
X166689500Y-78994199D01*
X166689500Y-79755801D01*
X166693798Y-79777407D01*
X166693442Y-79778988D01*
X166692032Y-79779787D01*
X166690493Y-79779279D01*
X166650203Y-79742762D01*
X166592250Y-79728245D01*
X166534296Y-79742762D01*
X166494006Y-79779279D01*
X166492467Y-79779787D01*
X166491057Y-79778988D01*
X166490701Y-79777407D01*
X166495000Y-79755801D01*
X166495000Y-78994199D01*
X166490701Y-78972591D01*
X166491057Y-78971010D01*
X166492467Y-78970211D01*
X166494006Y-78970719D01*
X166534297Y-79007236D01*
X166592250Y-79021753D01*
X166650202Y-79007236D01*
X166690493Y-78970719D01*
X166692032Y-78970211D01*
X166693442Y-78971010D01*
G37*
G36*
X155714429Y-79596012D02*
G01*
X155714483Y-79597662D01*
X155698598Y-79636009D01*
X155698598Y-79683986D01*
X155714483Y-79722338D01*
X155714429Y-79723988D01*
X155713153Y-79725035D01*
X155711524Y-79724766D01*
X155697942Y-79715690D01*
X155679389Y-79712000D01*
X154229787Y-79712000D01*
X154211233Y-79715690D01*
X154197651Y-79724766D01*
X154196022Y-79725035D01*
X154194746Y-79723988D01*
X154194692Y-79722338D01*
X154210577Y-79683984D01*
X154210577Y-79636010D01*
X154194692Y-79597662D01*
X154194746Y-79596012D01*
X154196022Y-79594965D01*
X154197651Y-79595234D01*
X154211233Y-79604309D01*
X154229787Y-79608000D01*
X155679389Y-79608000D01*
X155697942Y-79604309D01*
X155711524Y-79595234D01*
X155713153Y-79594965D01*
X155714429Y-79596012D01*
G37*
G36*
X154197651Y-79095233D02*
G01*
X154211233Y-79104309D01*
X154229787Y-79108000D01*
X155679389Y-79108000D01*
X155697942Y-79104309D01*
X155711524Y-79095234D01*
X155713153Y-79094965D01*
X155714429Y-79096012D01*
X155714483Y-79097662D01*
X155698598Y-79136012D01*
X155698598Y-79183988D01*
X155714483Y-79222337D01*
X155714429Y-79223987D01*
X155713153Y-79225034D01*
X155711524Y-79224765D01*
X155697942Y-79215690D01*
X155679389Y-79212000D01*
X154229787Y-79212000D01*
X154211233Y-79215690D01*
X154197651Y-79224766D01*
X154196022Y-79225035D01*
X154194746Y-79223988D01*
X154194692Y-79222338D01*
X154210577Y-79183988D01*
X154210577Y-79136012D01*
X154194692Y-79097661D01*
X154194746Y-79096011D01*
X154196022Y-79094964D01*
X154197651Y-79095233D01*
G37*
G36*
X154197651Y-78595233D02*
G01*
X154211233Y-78604309D01*
X154229787Y-78608000D01*
X155679389Y-78608000D01*
X155697942Y-78604309D01*
X155711524Y-78595234D01*
X155713153Y-78594965D01*
X155714429Y-78596012D01*
X155714483Y-78597662D01*
X155698598Y-78636012D01*
X155698598Y-78683988D01*
X155714483Y-78722337D01*
X155714429Y-78723987D01*
X155713153Y-78725034D01*
X155711524Y-78724765D01*
X155697942Y-78715690D01*
X155679389Y-78712000D01*
X154229787Y-78712000D01*
X154211233Y-78715690D01*
X154197651Y-78724766D01*
X154196022Y-78725035D01*
X154194746Y-78723988D01*
X154194692Y-78722338D01*
X154210577Y-78683988D01*
X154210577Y-78636012D01*
X154194692Y-78597661D01*
X154194746Y-78596011D01*
X154196022Y-78594964D01*
X154197651Y-78595233D01*
G37*
G36*
X154197651Y-78095233D02*
G01*
X154211233Y-78104309D01*
X154229787Y-78108000D01*
X155679389Y-78108000D01*
X155697942Y-78104309D01*
X155711524Y-78095234D01*
X155713153Y-78094965D01*
X155714429Y-78096012D01*
X155714483Y-78097662D01*
X155698598Y-78136012D01*
X155698598Y-78183988D01*
X155714483Y-78222337D01*
X155714429Y-78223987D01*
X155713153Y-78225034D01*
X155711524Y-78224765D01*
X155697942Y-78215690D01*
X155679389Y-78212000D01*
X154229787Y-78212000D01*
X154211233Y-78215690D01*
X154197651Y-78224766D01*
X154196022Y-78225035D01*
X154194746Y-78223988D01*
X154194692Y-78222338D01*
X154210577Y-78183988D01*
X154210577Y-78136012D01*
X154194692Y-78097661D01*
X154194746Y-78096011D01*
X154196022Y-78094964D01*
X154197651Y-78095233D01*
G37*
G36*
X154200561Y-77547178D02*
G01*
X154211233Y-77554309D01*
X154229787Y-77558000D01*
X155679389Y-77558000D01*
X155697942Y-77554309D01*
X155708612Y-77547179D01*
X155710366Y-77546948D01*
X155711617Y-77548199D01*
X155711386Y-77549953D01*
X155702135Y-77563800D01*
X155702926Y-77565084D01*
X155702422Y-77566672D01*
X155693055Y-77576996D01*
X155678511Y-77634954D01*
X155693012Y-77692921D01*
X155702434Y-77703321D01*
X155702937Y-77704909D01*
X155702138Y-77706205D01*
X155711387Y-77720047D01*
X155711618Y-77721801D01*
X155710367Y-77723052D01*
X155708613Y-77722821D01*
X155697942Y-77715690D01*
X155679389Y-77712000D01*
X154229787Y-77712000D01*
X154211233Y-77715690D01*
X154200562Y-77722821D01*
X154198808Y-77723052D01*
X154197557Y-77721801D01*
X154197788Y-77720047D01*
X154207036Y-77706205D01*
X154206237Y-77704908D01*
X154206740Y-77703320D01*
X154216170Y-77692907D01*
X154230663Y-77634954D01*
X154216126Y-77577010D01*
X154206751Y-77566673D01*
X154206247Y-77565084D01*
X154207039Y-77563799D01*
X154197787Y-77549952D01*
X154197556Y-77548198D01*
X154198807Y-77546947D01*
X154200561Y-77547178D01*
G37*
G36*
X154197651Y-76745233D02*
G01*
X154211233Y-76754309D01*
X154229787Y-76758000D01*
X155679389Y-76758000D01*
X155697942Y-76754309D01*
X155711524Y-76745234D01*
X155713153Y-76744965D01*
X155714429Y-76746012D01*
X155714483Y-76747662D01*
X155698598Y-76786012D01*
X155698598Y-76833988D01*
X155714483Y-76872337D01*
X155714429Y-76873987D01*
X155713153Y-76875034D01*
X155711524Y-76874765D01*
X155697942Y-76865690D01*
X155679389Y-76862000D01*
X154229787Y-76862000D01*
X154211233Y-76865690D01*
X154197651Y-76874766D01*
X154196022Y-76875035D01*
X154194746Y-76873988D01*
X154194692Y-76872338D01*
X154210577Y-76833988D01*
X154210577Y-76786012D01*
X154194692Y-76747661D01*
X154194746Y-76746011D01*
X154196022Y-76744964D01*
X154197651Y-76745233D01*
G37*
G36*
X154857431Y-75816507D02*
G01*
X154858347Y-75818156D01*
X154857483Y-75819834D01*
X154837498Y-75833629D01*
X154796959Y-75880517D01*
X154784369Y-75940941D01*
X154802730Y-75999863D01*
X154847416Y-76042440D01*
X154907661Y-76058064D01*
X154909035Y-76059306D01*
X154908800Y-76061143D01*
X154907159Y-76062000D01*
X154229787Y-76062000D01*
X154211233Y-76065690D01*
X154195675Y-76076086D01*
X154195061Y-76077006D01*
X154193447Y-76077893D01*
X154191791Y-76077085D01*
X154191499Y-76075267D01*
X154209415Y-76021029D01*
X154195049Y-75957052D01*
X154149836Y-75909564D01*
X154086107Y-75891928D01*
X154084757Y-75890674D01*
X154085005Y-75888848D01*
X154086640Y-75888000D01*
X154589454Y-75888000D01*
X154737431Y-75867661D01*
X154855550Y-75816354D01*
X154857431Y-75816507D01*
G37*
M02*
